<?xml version="1.0" standalone="no"?>
<!DOCTYPE svg PUBLIC "-//W3C//DTD SVG 20010904//EN"
 "http://www.w3.org/TR/2001/REC-SVG-20010904/DTD/svg10.dtd">
<svg version="1.0" xmlns="http://www.w3.org/2000/svg"
 width="1024.000000pt" height="1024.000000pt" viewBox="0 0 1024.000000 1024.000000"
 preserveAspectRatio="xMidYMid meet">
<metadata>
Created by potrace 1.16, written by Peter Selinger 2001-2019
</metadata>
<g transform="translate(0.000000,1024.000000) scale(0.100000,-0.100000)"
fill="currentColor" stroke="none">
<path d="M5005 8950 c-3 -5 -14 -10 -25 -10 -54 0 -207 -124 -246 -200 -52
-101 -49 15 -51 -1643 -1 -846 -3 -1541 -6 -1543 -3 -3 -697 -6 -1543 -7
-1650 -2 -1560 0 -1637 -50 -14 -9 -30 -17 -34 -17 -5 0 -35 -28 -68 -63 -61
-63 -105 -134 -105 -167 0 -11 -4 -22 -10 -25 -6 -3 -10 -52 -10 -110 0 -58 4
-107 10 -110 6 -3 10 -14 10 -25 0 -54 97 -176 182 -231 107 -69 -34 -64 1661
-66 847 -1 1541 -4 1544 -6 2 -3 5 -698 6 -1544 2 -1695 -3 -1553 66 -1661 55
-85 177 -182 231 -182 11 0 22 -4 25 -10 3 -6 52 -10 110 -10 58 0 107 4 110
10 3 6 14 10 25 10 54 0 176 97 231 182 69 107 64 -34 66 1662 1 846 4 1540 6
1543 3 2 697 5 1543 6 1650 2 1560 0 1637 50 14 9 30 17 34 17 5 0 35 28 68
63 61 63 105 134 105 167 0 11 5 22 10 25 6 3 10 52 10 110 0 58 -4 107 -10
110 -5 3 -10 14 -10 25 0 54 -124 207 -200 246 -100 52 14 49 -1644 51 -846 1
-1540 4 -1543 6 -2 3 -5 697 -6 1544 -2 1649 1 1559 -50 1636 -9 14 -17 30
-17 34 0 5 -28 35 -63 68 -63 61 -134 105 -167 105 -11 0 -22 5 -25 10 -3 6
-52 10 -110 10 -58 0 -107 -4 -110 -10z"/>
</g>
</svg>
