<svg version="1.0" xmlns="http://www.w3.org/2000/svg" width="1365.333" height="1365.333" viewBox="0 0 1024 1024"><path d="M500.3 225c-6.9 1.5-13.5 3.9-20.3 7.7-5.7 3.1-36 33-232.8 229.7-124.5 124.3-229 229.4-232.3 233.5C4 709.2 0 720.2 0 736.5c0 11.3 1.9 19.5 6.8 29 8 15.6 24 28.6 40.7 33.1 6.8 1.9 19.1 1.9 464.5 1.9h457.5l7.5-2.4c8.7-2.7 14.4-5.8 21.7-11.6 11.2-9 19.6-21.8 22.4-33.8.8-3.1 1.7-5.7 2.1-5.7 1.1 0 1-19.4 0-20.6-.5-.5-1.7-3.8-2.6-7.4-2.7-10.5-7.3-17.4-21.2-32.1-7.1-7.5-111.2-111.9-231.4-232.1-236.5-236.6-221.9-222.6-238.1-227.9-7.2-2.3-22.9-3.4-29.6-1.9z" fill="currentColor"/></svg>