<?xml version="1.0" standalone="no"?>
<!DOCTYPE svg PUBLIC "-//W3C//DTD SVG 20010904//EN"
 "http://www.w3.org/TR/2001/REC-SVG-20010904/DTD/svg10.dtd">
<svg version="1.0" xmlns="http://www.w3.org/2000/svg"
 width="1024.000000pt" height="1024.000000pt" viewBox="0 0 1024.000000 1024.000000"
 preserveAspectRatio="xMidYMid meet">
<metadata>
Created by potrace 1.16, written by Peter Selinger 2001-2019
</metadata>
<g transform="translate(0.000000,1024.000000) scale(0.100000,-0.100000)"
fill="currentColor" stroke="none">
<path d="M8910 10230 c0 -5 -11 -10 -24 -10 -39 0 -151 -28 -238 -60 -91 -33
-184 -83 -278 -148 -91 -63 -4591 -4560 -4619 -4616 -11 -23 -24 -59 -30 -81
-9 -38 -14 -65 -41 -200 -6 -33 -15 -78 -20 -100 -5 -22 -14 -67 -20 -100 -6
-33 -15 -78 -20 -100 -5 -22 -14 -67 -20 -100 -6 -33 -15 -78 -20 -100 -5 -22
-14 -67 -20 -100 -6 -33 -15 -78 -20 -100 -5 -22 -14 -67 -20 -100 -6 -33 -15
-78 -20 -100 -5 -22 -14 -67 -20 -100 -6 -33 -15 -78 -20 -100 -5 -22 -14 -67
-20 -100 -6 -33 -16 -76 -21 -96 -35 -138 35 -298 161 -366 81 -45 153 -51
280 -24 25 5 72 14 105 21 33 7 78 16 100 20 43 9 134 27 200 40 22 4 76 15
120 24 44 9 105 21 135 27 30 6 73 15 95 19 22 5 67 14 100 20 33 7 78 16 100
20 22 5 67 14 100 20 33 7 78 16 100 20 22 5 63 13 90 19 128 24 175 35 240
54 l70 20 2266 2266 c1246 1246 2286 2293 2310 2326 84 113 140 217 181 335
23 69 48 173 48 206 0 13 5 24 10 24 6 0 10 57 10 150 0 93 -4 150 -10 150 -5
0 -10 14 -10 31 0 37 -32 165 -60 237 -117 304 -361 552 -662 673 -77 31 -218
69 -255 69 -18 0 -33 5 -33 10 0 6 -57 10 -150 10 -93 0 -150 -4 -150 -10z
m289 -655 c96 -25 162 -65 236 -139 116 -118 162 -238 153 -402 -6 -100 -30
-178 -80 -257 -34 -55 -424 -457 -442 -457 -14 0 -746 732 -746 745 0 20 414
422 465 451 122 71 284 94 414 59z m-964 -1345 l370 -370 -1759 -1759 -1758
-1758 -57 -12 c-89 -20 -132 -29 -196 -41 -33 -6 -78 -16 -100 -20 -22 -5 -51
-11 -65 -13 -14 -3 -83 -16 -155 -31 -71 -14 -155 -31 -185 -37 -30 -6 -71
-15 -91 -20 -20 -5 -47 -9 -59 -9 -25 0 -25 3 -1 120 5 25 14 72 21 105 7 33
16 78 20 100 4 22 13 67 20 100 7 33 16 78 20 100 4 22 13 67 20 100 7 33 16
78 20 100 5 22 13 68 19 102 6 34 15 71 19 82 8 22 3501 3528 3517 3530 6 0
177 -166 380 -369z"/>
<path d="M1010 8525 c-95 -15 -212 -45 -225 -56 -5 -5 -16 -9 -25 -9 -14 0
-113 -48 -207 -100 -23 -13 -81 -54 -128 -92 -192 -155 -334 -378 -401 -633
-18 -68 -19 -185 -19 -3365 0 -3178 1 -3297 19 -3365 60 -230 161 -408 317
-564 159 -159 320 -249 569 -318 62 -17 217 -18 3360 -18 2751 0 3303 2 3345
14 235 64 419 166 570 317 155 156 271 359 317 559 37 160 37 179 37 2080 1
2046 6 1897 -64 2002 -62 94 -153 143 -263 143 -135 0 -239 -69 -304 -199
l-23 -46 -5 -1915 c-5 -1797 -7 -1918 -23 -1959 -45 -112 -99 -185 -180 -247
-53 -39 -78 -54 -152 -84 -68 -29 -196 -30 -3278 -30 -2723 0 -3159 2 -3207
15 -189 50 -336 196 -384 381 -14 56 -16 370 -16 3220 1 2671 3 3168 15 3218
52 220 236 383 453 402 37 3 900 6 1917 7 l1850 2 50 25 c65 32 137 104 166
166 19 40 24 65 24 134 0 74 -4 93 -29 143 -39 79 -110 139 -195 166 l-67 21
-1869 -1 c-1405 -1 -1889 -5 -1945 -14z"/>
</g>
</svg>
