<svg version="1.0" xmlns="http://www.w3.org/2000/svg" width="1365.333" height="1365.333" viewBox="0 0 1024 1024"><g fill="currentColor"><path d="M891 1c0 .5-1.1 1-2.4 1-3.9 0-15.1 2.8-23.8 6-9.1 3.3-18.4 8.3-27.8 14.8-9.1 6.3-459.1 456-461.9 461.6-1.1 2.3-2.4 5.9-3 8.1-.9 3.8-1.4 6.5-4.1 20-.6 3.3-1.5 7.8-2 10s-1.4 6.7-2 10c-.6 3.3-1.5 7.8-2 10s-1.4 6.7-2 10c-.6 3.3-1.5 7.8-2 10s-1.4 6.7-2 10c-.6 3.3-1.5 7.8-2 10s-1.4 6.7-2 10c-.6 3.3-1.5 7.8-2 10s-1.4 6.7-2 10c-.6 3.3-1.5 7.8-2 10s-1.4 6.7-2 10c-.6 3.3-1.6 7.6-2.1 9.6-3.5 13.8 3.5 29.8 16.1 36.6 8.1 4.5 15.3 5.1 28 2.4 2.5-.5 7.2-1.4 10.5-2.1 3.3-.7 7.8-1.6 10-2 4.3-.9 13.4-2.7 20-4 2.2-.4 7.6-1.5 12-2.4 4.4-.9 10.5-2.1 13.5-2.7 3-.6 7.3-1.5 9.5-1.9 2.2-.5 6.7-1.4 10-2 3.3-.7 7.8-1.6 10-2 2.2-.5 6.7-1.4 10-2 3.3-.7 7.8-1.6 10-2 2.2-.5 6.3-1.3 9-1.9 12.8-2.4 17.5-3.5 24-5.4l7-2 226.6-226.6c124.6-124.6 228.6-229.3 231-232.6 8.4-11.3 14-21.7 18.1-33.5 2.3-6.9 4.8-17.3 4.8-20.6 0-1.3.5-2.4 1-2.4.6 0 1-5.7 1-15s-.4-15-1-15c-.5 0-1-1.4-1-3.1 0-3.7-3.2-16.5-6-23.7-11.7-30.4-36.1-55.2-66.2-67.3C942.1 5.8 928 2 924.3 2c-1.8 0-3.3-.5-3.3-1 0-.6-5.7-1-15-1s-15 .4-15 1zm28.9 65.5c9.6 2.5 16.2 6.5 23.6 13.9 11.6 11.8 16.2 23.8 15.3 40.2-.6 10-3 17.8-8 25.7-3.4 5.5-42.4 45.7-44.2 45.7-1.4 0-74.6-73.2-74.6-74.5 0-2 41.4-42.2 46.5-45.1 12.2-7.1 28.4-9.4 41.4-5.9zM823.5 201l37 37-175.9 175.9-175.8 175.8-5.7 1.2c-8.9 2-13.2 2.9-19.6 4.1-3.3.6-7.8 1.6-10 2-2.2.5-5.1 1.1-6.5 1.3-1.4.3-8.3 1.6-15.5 3.1-7.1 1.4-15.5 3.1-18.5 3.7-3 .6-7.1 1.5-9.1 2s-4.7.9-5.9.9c-2.5 0-2.5-.3-.1-12 .5-2.5 1.4-7.2 2.1-10.5.7-3.3 1.6-7.8 2-10 .4-2.2 1.3-6.7 2-10s1.6-7.8 2-10c.4-2.2 1.3-6.7 2-10s1.6-7.8 2-10c.5-2.2 1.3-6.8 1.9-10.2.6-3.4 1.5-7.1 1.9-8.2.8-2.2 350.1-352.8 351.7-353 .6 0 17.7 16.6 38 36.9z"/><path d="M101 171.5c-9.5 1.5-21.2 4.5-22.5 5.6-.5.5-1.6.9-2.5.9-1.4 0-11.3 4.8-20.7 10-2.3 1.3-8.1 5.4-12.8 9.2C23.3 212.7 9.1 235 2.4 260.5.6 267.3.5 279 .5 597c0 317.8.1 329.7 1.9 336.5 6 23 16.1 40.8 31.7 56.4 15.9 15.9 32 24.9 56.9 31.8 6.2 1.7 21.7 1.8 336 1.8 275.1 0 330.3-.2 334.5-1.4 23.5-6.4 41.9-16.6 57-31.7 15.5-15.6 27.1-35.9 31.7-55.9 3.7-16 3.7-17.9 3.7-208 .1-204.6.6-189.7-6.4-200.2-6.2-9.4-15.3-14.3-26.3-14.3-13.5 0-23.9 6.9-30.4 19.9l-2.3 4.6L788 728c-.5 179.7-.7 191.8-2.3 195.9-4.5 11.2-9.9 18.5-18 24.7-5.3 3.9-7.8 5.4-15.2 8.4-6.8 2.9-19.6 3-327.8 3-272.3 0-315.9-.2-320.7-1.5-18.9-5-33.6-19.6-38.4-38.1-1.4-5.6-1.6-37-1.6-322 .1-267.1.3-316.8 1.5-321.8 5.2-22 23.6-38.3 45.3-40.2 3.7-.3 90-.6 191.7-.7l185-.2 5-2.5c6.5-3.2 13.7-10.4 16.6-16.6 1.9-4 2.4-6.5 2.4-13.4 0-7.4-.4-9.3-2.9-14.3-3.9-7.9-11-13.9-19.5-16.6l-6.7-2.1-186.9.1c-140.5.1-188.9.5-194.5 1.4z"/></g></svg>