<svg version="1.0" xmlns="http://www.w3.org/2000/svg" width="1365.333" height="1365.333" viewBox="0 0 1024 1024"><g fill="currentColor"><path d="M501 128.9c-.8.5-2.8 1.5-4.5 2.2-3.9 1.8-12.6 10.5-14.4 14.4-.7 1.6-1.7 3.8-2.2 4.7-.5 1-.9 20-.9 42.3 0 22.3.4 41.3.9 42.3.5.9 1.5 3 2.2 4.7 1.8 3.7 11.5 13.5 13.4 13.5.8 0 1.5.4 1.5 1 0 .5.9 1 1.9 1 1.1 0 2.3.4 2.6 1 .8 1.2 17.9 1.3 20.3.1.9-.5 3-1.5 4.7-2.2 3.8-1.8 12.6-10.6 14.4-14.4.7-1.7 1.7-3.8 2.2-4.7.5-1 .9-20 .9-42.3 0-22.3-.4-41.3-.9-42.3-.5-.9-1.5-3.1-2.2-4.7-.8-1.7-3.6-5.3-6.4-8-2.7-2.8-6.3-5.6-8-6.4-1.6-.7-3.8-1.7-4.7-2.2-2.2-1.1-18.8-1.1-20.8 0zM719 223.6c-6.3.8-13.3 5.1-22.6 14.1-3.3 3.2-8.5 8-11.5 10.7-20.9 19-33.7 31.9-35.6 35.8-3.7 7.7-4.7 14.5-2.9 21 .8 3.2 2.2 7.3 3.1 9.2 2.2 4.7 9 11.1 15 14.2 4.3 2.3 6.3 2.6 14 2.7 8.2 0 9.5-.3 14.9-3.2 3.3-1.7 6.6-3.9 7.5-4.9.9-.9 5-4.6 9.1-8.2 4.1-3.6 8.2-7.2 9-8 .8-.8 3.5-3.3 6-5.4 21.2-18.4 27.9-24.9 29.8-28.9.6-1.5 1.7-3.9 2.4-5.3s1.2-6.3 1.2-10.9c0-4.6-.5-9.5-1.2-10.9-.7-1.4-1.8-3.8-2.4-5.4-2-4.1-9.8-11.5-14.8-13.9-4.6-2.1-14.6-3.4-21-2.7zM284.9 226.3c-5.4 2.6-10.6 6.9-13.8 11.5-5.3 7.7-7.7 20.2-5 26.9 4.4 10.9 5.7 12.6 17.9 23.3 4.7 4.1 9.2 8.2 10 9 .8.8 4.9 4.4 9 8 4.1 3.6 8.2 7.2 9 8 .8.9 4.4 4 8 7 3.6 3 6.7 5.7 7 6 .3.3 2.6 1.6 5.2 2.9 6.7 3.4 19.2 3.4 26.1.1 8.8-4.2 15.4-12.5 18.7-23.6 1.7-5.5.4-13.7-3.3-21.2-1.8-3.8-20.7-22.8-36.6-36.8-2.5-2.1-7.2-6.5-10.5-9.7-7-6.7-13.8-11.7-16-11.7-.8 0-1.8-.5-2.1-1-.3-.6-4.7-1-9.8-.9-7.3 0-10.1.5-13.8 2.2zM86 449.2c-1.4.6-3.9 1.7-5.6 2.4-1.7.7-5.2 3.5-7.8 6-4.3 4.4-5.3 6-8.5 13.7-.8 2.1-1.1 54.8-1.1 200.7v197.9l2.2 5.8c2.9 7.9 11.2 16.2 19.1 19.1l5.8 2.2h842.8l5.8-2.2c7.9-2.9 16.2-11.2 19.1-19.1l2.2-5.8V672.2c0-157.4-.3-198.4-1.3-201.2-2.2-6-4.5-9.6-8.9-14-3.9-3.8-5.5-4.8-13.1-7.9-2-.8-22.8-1.1-73.2-1.1-50.4 0-71.2.3-73.2 1.1-7.7 3.2-9.3 4.2-13.7 8.5-4.3 4.4-5.3 6-8.5 13.7-.8 2-1.1 35.2-1.1 122.7v120H256V594c0-87.5-.3-120.7-1.1-122.7-3.2-7.7-4.2-9.3-8.5-13.7-4.4-4.3-6-5.3-13.7-8.5-3.8-1.5-143.1-1.5-146.7.1zm105 182.7c0 82.6.3 119.8 1.1 122.2 3.4 10.7 9 17.2 18.8 21.8l5.6 2.6 292 .3c219 .2 293.4 0 297.4-.9 12.4-2.6 20.8-10.6 25-23.8.8-2.4 1.1-39.6 1.1-122.2V513h63v319H128V513h63v118.9z"/></g></svg>