<?xml version="1.0" standalone="no"?>
<!DOCTYPE svg PUBLIC "-//W3C//DTD SVG 20010904//EN"
 "http://www.w3.org/TR/2001/REC-SVG-20010904/DTD/svg10.dtd">
<svg version="1.0" xmlns="http://www.w3.org/2000/svg"
 width="1024.000000pt" height="1024.000000pt" viewBox="0 0 1024.000000 1024.000000"
 preserveAspectRatio="xMidYMid meet">
<metadata>
Created by potrace 1.16, written by Peter Selinger 2001-2019
</metadata>
<g transform="translate(0.000000,1024.000000) scale(0.100000,-0.100000)"
fill="currentColor" stroke="none">
<path d="M2125 7508 c-100 -13 -271 -44 -315 -58 -14 -4 -45 -13 -70 -20 -59
-17 -159 -49 -187 -61 -13 -5 -33 -13 -45 -18 -522 -208 -959 -601 -1235
-1108 -118 -217 -201 -467 -254 -763 -19 -103 -19 -626 -1 -730 94 -530 305
-948 661 -1314 119 -122 253 -234 386 -323 82 -54 233 -141 295 -169 106 -48
128 -58 148 -65 12 -5 32 -13 45 -18 28 -12 128 -44 187 -61 25 -7 56 -16 70
-20 48 -15 212 -44 331 -59 110 -14 398 -14 508 0 116 14 254 39 331 59 81 21
246 74 254 82 6 4 16 8 23 8 21 0 237 101 331 155 57 33 268 176 312 212 84
68 345 328 695 691 l108 113 -159 162 c-88 89 -229 233 -314 320 -85 86 -157
157 -161 157 -4 0 -108 -102 -230 -227 -536 -547 -550 -559 -799 -685 -52 -26
-103 -48 -112 -48 -9 0 -19 -4 -22 -9 -3 -5 -16 -11 -28 -14 -13 -3 -59 -15
-103 -26 -360 -94 -709 -58 -1045 107 -508 250 -829 766 -830 1335 0 253 58
485 177 707 59 109 91 156 175 258 324 388 851 591 1341 518 191 -29 300 -63
464 -142 234 -114 268 -146 1138 -1044 77 -80 237 -244 355 -365 221 -226 279
-286 845 -870 866 -893 867 -894 1070 -1033 179 -123 324 -202 480 -262 11 -4
31 -12 45 -18 30 -13 127 -44 190 -62 25 -7 56 -16 70 -20 48 -15 212 -44 331
-59 110 -14 398 -14 508 0 116 14 253 39 331 59 55 14 233 70 258 80 12 6 32
14 45 19 315 126 588 311 837 567 282 290 466 608 589 1019 32 104 71 307 71
367 0 20 5 40 10 43 6 4 10 95 10 240 0 145 -4 236 -10 240 -5 3 -10 23 -10
43 0 60 -40 265 -71 367 -84 277 -179 483 -318 689 -235 347 -568 639 -936
820 -125 61 -183 86 -198 86 -7 0 -17 4 -23 8 -8 8 -173 61 -254 82 -77 20
-215 45 -331 59 -108 14 -404 14 -506 1 -145 -19 -275 -42 -333 -60 -14 -4
-45 -13 -70 -20 -74 -21 -193 -61 -227 -76 -18 -8 -50 -21 -70 -30 -221 -95
-468 -251 -637 -404 -50 -45 -406 -406 -611 -618 l-108 -113 160 -162 c88 -89
229 -233 313 -319 84 -87 157 -158 161 -158 4 0 112 107 240 238 504 515 556
559 770 664 121 60 192 86 302 113 355 86 696 49 1024 -112 184 -89 350 -219
482 -376 297 -354 414 -819 320 -1272 -37 -177 -137 -404 -245 -557 -78 -109
-247 -278 -357 -355 -94 -66 -273 -158 -372 -191 -379 -127 -785 -104 -1130
64 -263 128 -245 112 -1169 1064 -83 85 -239 245 -346 355 -107 110 -260 268
-340 350 -80 83 -244 251 -364 375 -121 124 -279 286 -350 360 -445 459 -642
655 -736 730 -51 42 -236 167 -300 203 -49 28 -197 102 -270 135 -47 21 -263
92 -335 111 -83 21 -218 46 -336 60 -99 13 -423 12 -524 -1z"/>
</g>
</svg>
