<svg version="1.0" xmlns="http://www.w3.org/2000/svg" width="1365.333" height="1365.333" viewBox="0 0 1024 1024"><path d="M212.5 273.2c-10 1.3-27.1 4.4-31.5 5.8-1.4.4-4.5 1.3-7 2-5.9 1.7-15.9 4.9-18.7 6.1-1.3.5-3.3 1.3-4.5 1.8C98.6 309.7 54.9 349 27.3 399.7 15.5 421.4 7.2 446.4 1.9 476 0 486.3 0 538.6 1.8 549c9.4 53 30.5 94.8 66.1 131.4 11.9 12.2 25.3 23.4 38.6 32.3 8.2 5.4 23.3 14.1 29.5 16.9 10.6 4.8 12.8 5.8 14.8 6.5 1.2.5 3.2 1.3 4.5 1.8 2.8 1.2 12.8 4.4 18.7 6.1 2.5.7 5.6 1.6 7 2 4.8 1.5 21.2 4.4 33.1 5.9 11 1.4 39.8 1.4 50.8 0 11.6-1.4 25.4-3.9 33.1-5.9 8.1-2.1 24.6-7.4 25.4-8.2.6-.4 1.6-.8 2.3-.8 2.1 0 23.7-10.1 33.1-15.5 5.7-3.3 26.8-17.6 31.2-21.2 8.4-6.8 34.5-32.8 69.5-69.1l10.8-11.3-15.9-16.2c-8.8-8.9-22.9-23.3-31.4-32-8.5-8.6-15.7-15.7-16.1-15.7-.4 0-10.8 10.2-23 22.7-53.6 54.7-55 55.9-79.9 68.5-5.2 2.6-10.3 4.8-11.2 4.8-.9 0-1.9.4-2.2.9-.3.5-1.6 1.1-2.8 1.4-1.3.3-5.9 1.5-10.3 2.6-36 9.4-70.9 5.8-104.5-10.7-50.8-25-82.9-76.6-83-133.5 0-25.3 5.8-48.5 17.7-70.7 5.9-10.9 9.1-15.6 17.5-25.8 32.4-38.8 85.1-59.1 134.1-51.8 19.1 2.9 30 6.3 46.4 14.2 23.4 11.4 26.8 14.6 113.8 104.4 7.7 8 23.7 24.4 35.5 36.5 22.1 22.6 27.9 28.6 84.5 87 86.6 89.3 86.7 89.4 107 103.3 17.9 12.3 32.4 20.2 48 26.2 1.1.4 3.1 1.2 4.5 1.8 3 1.3 12.7 4.4 19 6.2 2.5.7 5.6 1.6 7 2 4.8 1.5 21.2 4.4 33.1 5.9 11 1.4 39.8 1.4 50.8 0 11.6-1.4 25.3-3.9 33.1-5.9 5.5-1.4 23.3-7 25.8-8 1.2-.6 3.2-1.4 4.5-1.9 31.5-12.6 58.8-31.1 83.7-56.7 28.2-29 46.6-60.8 58.9-101.9 3.2-10.4 7.1-30.7 7.1-36.7 0-2 .5-4 1-4.3.6-.4 1-9.5 1-24s-.4-23.6-1-24c-.5-.3-1-2.3-1-4.3 0-6-4-26.5-7.1-36.7-8.4-27.7-17.9-48.3-31.8-68.9-23.5-34.7-56.8-63.9-93.6-82-12.5-6.1-18.3-8.6-19.8-8.6-.7 0-1.7-.4-2.3-.8-.8-.8-17.3-6.1-25.4-8.2-7.7-2-21.5-4.5-33.1-5.9-10.8-1.4-40.4-1.4-50.6-.1-14.5 1.9-27.5 4.2-33.3 6-1.4.4-4.5 1.3-7 2-7.4 2.1-19.3 6.1-22.7 7.6-1.8.8-5 2.1-7 3-22.1 9.5-46.8 25.1-63.7 40.4-5 4.5-40.6 40.6-61.1 61.8l-10.8 11.3 16 16.2c8.8 8.9 22.9 23.3 31.3 31.9 8.4 8.7 15.7 15.8 16.1 15.8.4 0 11.2-10.7 24-23.8 50.4-51.5 55.6-55.9 77-66.4 12.1-6 19.2-8.6 30.2-11.3 35.5-8.6 69.6-4.9 102.4 11.2 18.4 8.9 35 21.9 48.2 37.6 29.7 35.4 41.4 81.9 32 127.2-3.7 17.7-13.7 40.4-24.5 55.7-7.8 10.9-24.7 27.8-35.7 35.5-9.4 6.6-27.3 15.8-37.2 19.1-37.9 12.7-78.5 10.4-113-6.4-26.3-12.8-24.5-11.2-116.9-106.4-8.3-8.5-23.9-24.5-34.6-35.5-10.7-11-26-26.8-34-35-8-8.3-24.4-25.1-36.4-37.5-12.1-12.4-27.9-28.6-35-36-44.5-45.9-64.2-65.5-73.6-73-5.1-4.2-23.6-16.7-30-20.3-4.9-2.8-19.7-10.2-27-13.5-4.7-2.1-26.3-9.2-33.5-11.1-8.3-2.1-21.8-4.6-33.6-6-9.9-1.3-42.3-1.2-52.4.1z" fill="currentColor"/></svg>