<?xml version="1.0" standalone="no"?>
<!DOCTYPE svg PUBLIC "-//W3C//DTD SVG 20010904//EN"
 "http://www.w3.org/TR/2001/REC-SVG-20010904/DTD/svg10.dtd">
<svg version="1.0" xmlns="http://www.w3.org/2000/svg"
 width="1024.000000pt" height="1024.000000pt" viewBox="0 0 1024.000000 1024.000000"
 preserveAspectRatio="xMidYMid meet">
<metadata>
Created by potrace 1.16, written by Peter Selinger 2001-2019
</metadata>
<g transform="translate(0.000000,1024.000000) scale(0.100000,-0.100000)"
fill="#dd1919" stroke="none">
<path d="M4770 10230 c-14 -5 -86 -14 -160 -20 -297 -25 -673 -99 -990 -196
-998 -306 -1854 -891 -2523 -1726 -85 -105 -114 -145 -237 -324 -411 -602
-698 -1342 -808 -2084 -44 -292 -47 -345 -47 -770 0 -443 6 -524 61 -850 207
-1240 881 -2377 1873 -3161 685 -541 1482 -893 2331 -1032 345 -57 416 -62
850 -62 403 0 457 3 755 46 740 107 1489 399 2105 820 746 510 1349 1200 1729
1982 182 375 291 673 380 1037 67 277 131 672 131 812 0 31 5 60 10 63 6 4 10
132 10 350 0 218 -4 346 -10 350 -5 3 -10 32 -10 63 0 63 -11 161 -41 357 -82
535 -239 1031 -482 1519 -91 183 -245 445 -349 592 -24 34 -63 90 -87 125
-259 372 -768 881 -1140 1140 -35 24 -91 63 -125 87 -251 176 -656 394 -956
514 -274 110 -516 186 -810 252 -174 40 -407 78 -590 96 -58 5 -125 13 -150
16 -71 10 -692 13 -720 4z m615 -1030 c459 -37 833 -121 1210 -270 450 -179
851 -420 1195 -721 502 -438 887 -980 1130 -1589 212 -531 316 -1162 281
-1707 -47 -753 -238 -1355 -627 -1979 -320 -513 -802 -990 -1317 -1303 -291
-177 -553 -300 -842 -396 -855 -285 -1745 -285 -2600 0 -498 166 -991 450
-1395 804 -288 252 -589 605 -772 906 -245 402 -392 745 -498 1162 -82 320
-129 693 -129 1008 0 195 29 517 64 715 132 734 457 1409 953 1980 78 90 314
325 398 396 582 498 1243 812 1984 943 305 54 683 74 965 51z"/>
<path d="M5030 8184 c-55 -10 -148 -48 -198 -81 -93 -62 -170 -164 -213 -283
-10 -27 -14 -376 -20 -1615 -8 -1542 -6 -1679 22 -1760 58 -163 178 -280 349
-339 61 -21 229 -21 290 0 171 59 291 176 348 339 28 78 30 223 23 1755 l-7
1585 -23 60 c-81 205 -253 332 -461 340 -47 2 -96 2 -110 -1z"/>
<path d="M5003 3061 c-112 -20 -267 -131 -328 -235 -55 -95 -68 -143 -69 -266
-1 -169 32 -251 148 -366 67 -66 115 -96 216 -135 47 -19 243 -19 290 0 95 36
150 71 216 136 101 101 140 184 150 320 17 220 -93 410 -291 506 -78 37 -91
40 -187 44 -57 2 -122 0 -145 -4z"/>
</g>
</svg>
