<?xml version="1.0" standalone="no"?>
<!DOCTYPE svg PUBLIC "-//W3C//DTD SVG 20010904//EN"
 "http://www.w3.org/TR/2001/REC-SVG-20010904/DTD/svg10.dtd">
<svg version="1.0" xmlns="http://www.w3.org/2000/svg"
 width="1024.000000pt" height="1024.000000pt" viewBox="0 0 1024.000000 1024.000000"
 preserveAspectRatio="xMidYMid meet">
<metadata>
Created by potrace 1.16, written by Peter Selinger 2001-2019
</metadata>
<g transform="translate(0.000000,1024.000000) scale(0.100000,-0.100000)"
fill="currentColor" stroke="none">
<path d="M940 9625 c-411 -71 -755 -366 -888 -760 -44 -132 -47 -155 -47 -360
0 -205 3 -229 48 -360 91 -271 292 -509 539 -639 225 -118 475 -161 708 -121
259 44 447 141 631 326 216 217 328 488 329 797 0 62 -5 134 -10 160 -6 26
-15 70 -21 97 -52 243 -213 488 -429 652 -65 48 -224 134 -295 158 -178 61
-391 80 -565 50z m311 -651 c77 -23 137 -55 192 -104 50 -44 127 -149 127
-173 0 -7 3 -17 7 -21 15 -15 32 -104 33 -168 2 -326 -325 -567 -629 -464 -39
13 -93 38 -120 56 -170 108 -254 322 -207 522 38 159 185 309 344 353 68 18
189 18 253 -1z"/>
<path d="M3190 8826 c-87 -16 -130 -38 -183 -95 -41 -43 -53 -64 -86 -144 -14
-36 -14 -128 0 -164 44 -109 87 -160 180 -213 l44 -25 3385 -5 c2253 -3 3403
-2 3440 5 30 6 71 18 92 28 67 34 158 139 158 184 0 7 5 13 10 13 6 0 10 38
10 95 0 57 -4 95 -10 95 -5 0 -10 6 -10 13 0 26 -31 76 -73 119 -49 50 -111
82 -185 97 -80 17 -6684 13 -6772 -3z"/>
<path d="M1005 6243 c-74 -8 -157 -28 -240 -55 -387 -130 -670 -452 -751 -857
-20 -103 -15 -404 9 -486 65 -219 155 -380 292 -519 166 -169 343 -265 605
-327 72 -18 348 -18 415 -1 28 7 68 18 90 23 22 6 76 24 120 41 327 129 586
419 677 758 37 138 50 356 28 458 -6 26 -15 70 -21 97 -84 395 -418 735 -824
840 -107 28 -295 41 -400 28z m216 -653 c154 -29 293 -145 356 -300 65 -156
35 -343 -76 -480 -53 -66 -78 -86 -156 -125 -198 -99 -425 -60 -571 97 -150
162 -176 381 -70 572 101 180 308 275 517 236z"/>
<path d="M3113 5415 c-93 -42 -158 -118 -192 -224 -44 -138 45 -311 195 -377
l55 -24 3404 0 c2526 0 3411 3 3432 11 77 32 93 42 136 85 46 46 77 94 77 121
0 7 5 13 10 13 6 0 10 38 10 95 0 57 -4 95 -10 95 -5 0 -10 6 -10 13 0 27 -31
75 -77 121 -43 43 -59 53 -136 85 -21 8 -906 11 -3435 10 l-3407 0 -52 -24z"/>
<path d="M942 2844 c-463 -78 -835 -440 -928 -903 -20 -103 -15 -404 9 -486
67 -226 155 -381 304 -530 386 -389 988 -444 1445 -133 81 54 232 205 286 286
71 104 133 237 164 352 37 138 50 356 28 458 -6 26 -15 70 -21 97 -64 301
-284 586 -569 738 -221 119 -477 162 -718 121z m301 -649 c91 -24 157 -63 227
-134 59 -61 78 -89 107 -161 50 -120 43 -271 -18 -397 -31 -62 -150 -181 -212
-212 -141 -68 -305 -68 -445 1 -63 31 -173 141 -206 205 -100 198 -66 413 89
568 125 126 293 173 458 130z"/>
<path d="M3155 2041 c-164 -41 -283 -240 -234 -392 32 -100 88 -169 179 -219
44 -24 51 -25 335 -31 512 -12 6454 -10 6521 2 32 6 79 20 103 32 73 36 161
136 161 184 0 7 5 13 10 13 6 0 10 38 10 95 0 57 -4 95 -10 95 -5 0 -10 7 -10
15 0 22 -59 107 -95 137 -16 14 -48 36 -70 49 l-40 24 -3415 2 c-1878 0 -3428
-2 -3445 -6z"/>
</g>
</svg>
