<svg version="1.0" xmlns="http://www.w3.org/2000/svg" width="1365.333" height="1365.333" viewBox="0 0 1024 1024"><g fill="currentColor"><path d="M94 61.5c-41.1 7.1-75.5 36.6-88.8 76C.8 150.7.5 153 .5 173.5s.3 22.9 4.8 36c9.1 27.1 29.2 50.9 53.9 63.9 22.5 11.8 47.5 16.1 70.8 12.1 25.9-4.4 44.7-14.1 63.1-32.6 21.6-21.7 32.8-48.8 32.9-79.7 0-6.2-.5-13.4-1-16-.6-2.6-1.5-7-2.1-9.7-5.2-24.3-21.3-48.8-42.9-65.2-6.5-4.8-22.4-13.4-29.5-15.8-17.8-6.1-39.1-8-56.5-5zm31.1 65.1c7.7 2.3 13.7 5.5 19.2 10.4 5 4.4 12.7 14.9 12.7 17.3 0 .7.3 1.7.7 2.1 1.5 1.5 3.2 10.4 3.3 16.8.2 32.6-32.5 56.7-62.9 46.4-3.9-1.3-9.3-3.8-12-5.6-17-10.8-25.4-32.2-20.7-52.2 3.8-15.9 18.5-30.9 34.4-35.3 6.8-1.8 18.9-1.8 25.3.1zM319 141.4c-8.7 1.6-13 3.8-18.3 9.5-4.1 4.3-5.3 6.4-8.6 14.4-1.4 3.6-1.4 12.8 0 16.4 4.4 10.9 8.7 16 18 21.3l4.4 2.5 338.5.5c225.3.3 340.3.2 344-.5 3-.6 7.1-1.8 9.2-2.8 6.7-3.4 15.8-13.9 15.8-18.4 0-.7.5-1.3 1-1.3.6 0 1-3.8 1-9.5s-.4-9.5-1-9.5c-.5 0-1-.6-1-1.3 0-2.6-3.1-7.6-7.3-11.9-4.9-5-11.1-8.2-18.5-9.7-8-1.7-668.4-1.3-677.2.3zM100.5 399.7c-7.4.8-15.7 2.8-24 5.5-38.7 13-67 45.2-75.1 85.7-2 10.3-1.5 40.4.9 48.6 6.5 21.9 15.5 38 29.2 51.9 16.6 16.9 34.3 26.5 60.5 32.7 7.2 1.8 34.8 1.8 41.5.1 2.8-.7 6.8-1.8 9-2.3 2.2-.6 7.6-2.4 12-4.1 32.7-12.9 58.6-41.9 67.7-75.8 3.7-13.8 5-35.6 2.8-45.8-.6-2.6-1.5-7-2.1-9.7-8.4-39.5-41.8-73.5-82.4-84-10.7-2.8-29.5-4.1-40-2.8zm21.6 65.3c15.4 2.9 29.3 14.5 35.6 30 6.5 15.6 3.5 34.3-7.6 48-5.3 6.6-7.8 8.6-15.6 12.5-19.8 9.9-42.5 6-57.1-9.7-15-16.2-17.6-38.1-7-57.2 10.1-18 30.8-27.5 51.7-23.6zM311.3 482.5c-9.3 4.2-15.8 11.8-19.2 22.4-4.4 13.8 4.5 31.1 19.5 37.7l5.5 2.4h340.4c252.6 0 341.1-.3 343.2-1.1 7.7-3.2 9.3-4.2 13.6-8.5 4.6-4.6 7.7-9.4 7.7-12.1 0-.7.5-1.3 1-1.3.6 0 1-3.8 1-9.5s-.4-9.5-1-9.5c-.5 0-1-.6-1-1.3 0-2.7-3.1-7.5-7.7-12.1-4.3-4.3-5.9-5.3-13.6-8.5-2.1-.8-90.6-1.1-343.5-1H316.5l-5.2 2.4zM94.2 739.6c-46.3 7.8-83.5 44-92.8 90.3-2 10.3-1.5 40.4.9 48.6 6.7 22.6 15.5 38.1 30.4 53 38.6 38.9 98.8 44.4 144.5 13.3 8.1-5.4 23.2-20.5 28.6-28.6 7.1-10.4 13.3-23.7 16.4-35.2 3.7-13.8 5-35.6 2.8-45.8-.6-2.6-1.5-7-2.1-9.7-6.4-30.1-28.4-58.6-56.9-73.8-22.1-11.9-47.7-16.2-71.8-12.1zm30.1 64.9c9.1 2.4 15.7 6.3 22.7 13.4 5.9 6.1 7.8 8.9 10.7 16.1 5 12 4.3 27.1-1.8 39.7-3.1 6.2-15 18.1-21.2 21.2-14.1 6.8-30.5 6.8-44.5-.1-6.3-3.1-17.3-14.1-20.6-20.5-10-19.8-6.6-41.3 8.9-56.8 12.5-12.6 29.3-17.3 45.8-13zM315.5 819.9c-16.4 4.1-28.3 24-23.4 39.2 3.2 10 8.8 16.9 17.9 21.9 4.4 2.4 5.1 2.5 33.5 3.1 51.2 1.2 645.4 1 652.1-.2 3.2-.6 7.9-2 10.3-3.2 7.3-3.6 16.1-13.6 16.1-18.4 0-.7.5-1.3 1-1.3.6 0 1-3.8 1-9.5s-.4-9.5-1-9.5c-.5 0-1-.7-1-1.5 0-2.2-5.9-10.7-9.5-13.7-1.6-1.4-4.8-3.6-7-4.9l-4-2.4-341.5-.2c-187.8 0-342.8.2-344.5.6z"/></g></svg>