<svg version="1.0" xmlns="http://www.w3.org/2000/svg" width="1365.333" height="1365.333" viewBox="0 0 1024 1024"><g fill="currentColor"><path d="M270.5 117.7c-8.7 1.2-11.6 3.8-67 59.3-29.7 29.7-54.3 54-54.7 54-.4 0-10.8-10-23.1-22.3-26.1-26.1-27.5-27-40.9-27-10.4 0-15.6 2.1-22.8 9.3-7.2 7.2-9.3 12.4-9.3 22.8 0 14.1-.4 13.4 40.8 54.6 37.3 37.3 39.5 39.1 49.8 41.5 5.9 1.4 15.2-.1 20.9-3.3 2-1.2 34.2-32.5 71.5-69.6 68.8-68.4 70-69.7 73.2-79.9 4.2-13-4.4-30.4-18.1-36.8-4.4-2.1-14.8-3.5-20.3-2.6zM419 181.9c-17 3.5-29.9 23.7-24.9 39.2 4.1 12.9 11.7 20.5 25 24.7 5.1 1.7 521.7 1.7 526.8.1 9.9-3.2 18-10 22.1-18.5 3.5-7.4 3.4-19.9-.2-27.5-3.2-6.4-8.7-12-15.4-15.7l-4.9-2.7-262.5-.1c-144.4-.1-264.1.1-266 .5zM156 395.5c-14.2 2-23.1 4.6-33.8 9.6-3.5 1.6-6.5 2.9-6.8 2.9-.3 0-2.5 1.3-4.9 3-2.4 1.6-4.6 3-4.9 3-1.6 0-13.1 9.8-20.2 17.2-11.8 12.3-19 23.6-25.1 39.3-1.7 4.4-3.6 10-4.1 12.5-.6 2.5-1.6 6.7-2.2 9.5-1.5 6.5-1.5 31.5-.1 39.1 6.5 33.4 23.8 60.3 50.6 78.4 7.9 5.3 23.1 13 25.7 13 .8 0 1.8.3 2.2.7 1.5 1.5 14.7 4.4 25.6 5.7 22.3 2.5 43.6-1.2 63.5-11.1 11.8-5.9 14.9-7.9 24-15.5 13.6-11.4 25.9-27.5 32.4-42.8 4.1-9.6 4.7-11.4 6.9-20.5 4.3-17.5 4.4-35.8.2-53.5-1.7-7-3.4-12.5-4.2-13.4-.4-.6-.8-1.6-.8-2.4 0-2.3-6.2-14.4-11.1-21.7-13.6-20.1-28.5-33-50.1-43.3-3.7-1.8-7.4-3.2-8.2-3.2-.8 0-1.7-.4-2-.9-.3-.5-1.8-1.1-3.3-1.4-1.6-.3-4.8-1.1-7.3-1.7-6.4-1.5-25.8-4-30-3.8-1.9 0-7.3.6-12 1.3zm32.5 67.5c7.8 3 17.6 9.9 22.5 16.1 22.6 28.7 11.5 69.6-22.5 82.9-5.2 2.1-7.7 2.4-18.5 2.4-10.3-.1-13.4-.5-17.8-2.2-15.8-6.2-27.1-17.9-32.1-33.2-2.9-8.8-2.9-24.2 0-33 5.8-17.8 20.3-30.8 38.9-35.1 6.5-1.5 23-.3 29.5 2.1zM413.4 482.4c-9.7 4.4-15.6 11.5-19 22.5-1.8 5.9-1.7 9.4.1 15.5 3.1 10.1 9.9 17.8 19.7 22.4l4.8 2.2h262.7c206 0 263.6-.3 266.3-1.3 1.9-.6 5.2-2.2 7.2-3.5 4.5-2.8 12.8-12 12.8-14.2 0-.9.5-2.1 1.2-2.8.7-.7 1.1-4.7 1.2-10 0-7.6-.3-9.5-2.7-14.4-2.9-5.9-10.1-13.2-15.3-15.7-1.6-.7-3.7-1.7-4.6-2.2-1-.5-114.8-.9-265.5-.8H418.5l-5.1 2.3zM160 694c-4.7.4-9.8 1-11.5 1.4-1.6.4-5 1.2-7.5 1.8-31.3 7.2-62.9 33.1-76.7 62.8-5.4 11.5-7 16.4-10.4 31.8-1.5 6.8-1.5 31 0 38.7 3.9 20.4 12.2 39.2 23.4 53 17.2 21.3 42.2 37.3 66.2 42.4 2.8.6 7.1 1.5 9.7 2.1 13.6 3 43.2-.1 57.3-6 13.9-5.8 26.4-12.5 29.5-16 .3-.3 2.1-1.7 4-3.1 4.5-3.4 14.5-13.4 17.9-17.9 1.4-1.9 2.8-3.7 3.2-4 1.6-1.4 7-10.4 10.5-17.5 8.4-17.1 12.4-33.8 12.4-52.2 0-10.4-.4-13.3-3.1-26.8-3.8-17.9-14.5-38-28.3-53-24.7-27-59.1-40.4-96.6-37.5zm27.4 67.5c17.8 6.4 29.8 19.9 34.2 38.2 1.5 6.7 1.8 16.7.5 20.9-.5 1.6-1.5 4.9-2.2 7.4-4.4 15-17.9 28.5-32.9 32.9-2.5.7-5.8 1.7-7.4 2.2-4.2 1.3-14.2 1-20.9-.5-18.3-4.4-31.8-16.4-38.2-34.2-2-5.6-2.5-8.7-2.5-16.9 0-16 4.4-26.9 15-37.5 10.6-10.6 20.9-14.7 37-14.9 8.9-.1 11.6.3 17.4 2.4zM418.5 779.3c-13.3 4.6-20.9 12.5-24.4 25.3-1.5 5.5-1.4 8.9.4 14.9 2.8 9.3 8.6 16.1 18 21.2l5 2.8h529.2l5.6-3c6.7-3.5 11.4-8.1 15.2-15 2.5-4.4 2.8-6.1 2.8-14 .1-10.9-2.1-16.2-9.4-23.3-4.8-4.7-8.5-7-15-9.1-4.8-1.5-522.9-1.4-527.4.2z"/></g></svg>