<?xml version="1.0" standalone="no"?>
<!DOCTYPE svg PUBLIC "-//W3C//DTD SVG 20010904//EN"
 "http://www.w3.org/TR/2001/REC-SVG-20010904/DTD/svg10.dtd">
<svg version="1.0" xmlns="http://www.w3.org/2000/svg"
 width="1024.000000pt" height="1024.000000pt" viewBox="0 0 1024.000000 1024.000000"
 preserveAspectRatio="xMidYMid meet">
<metadata>
Created by potrace 1.16, written by Peter Selinger 2001-2019
</metadata>
<g transform="translate(0.000000,1024.000000) scale(0.100000,-0.100000)"
fill="currentColor" stroke="none">
<path d="M2705 9063 c-87 -12 -116 -38 -670 -593 -297 -297 -543 -540 -547
-540 -4 0 -108 100 -231 223 -261 261 -275 270 -409 270 -104 0 -156 -21 -228
-93 -72 -72 -93 -124 -93 -228 0 -141 -4 -134 408 -546 373 -373 395 -391 498
-415 59 -14 152 1 209 33 20 12 342 325 715 696 688 684 700 697 732 799 42
130 -44 304 -181 368 -44 21 -148 35 -203 26z"/>
<path d="M4190 8421 c-170 -35 -299 -237 -249 -392 41 -129 117 -205 250 -247
51 -17 5217 -17 5268 -1 99 32 180 100 221 185 35 74 34 199 -2 275 -32 64
-87 120 -154 157 l-49 27 -2625 1 c-1444 1 -2641 -1 -2660 -5z"/>
<path d="M1560 6285 c-142 -20 -231 -46 -338 -96 -35 -16 -65 -29 -68 -29 -3
0 -25 -13 -49 -30 -24 -16 -46 -30 -49 -30 -16 0 -131 -98 -202 -172 -118
-123 -190 -236 -251 -393 -17 -44 -36 -100 -41 -125 -6 -25 -16 -67 -22 -95
-15 -65 -15 -315 -1 -391 65 -334 238 -603 506 -784 79 -53 231 -130 257 -130
8 0 18 -3 22 -7 15 -15 147 -44 256 -57 223 -25 436 12 635 111 118 59 149 79
240 155 136 114 259 275 324 428 41 96 47 114 69 205 43 175 44 358 2 535 -17
70 -34 125 -42 134 -4 6 -8 16 -8 24 0 23 -62 144 -111 217 -136 201 -285 330
-501 433 -37 18 -74 32 -82 32 -8 0 -17 4 -20 9 -3 5 -18 11 -33 14 -16 3 -48
11 -73 17 -64 15 -258 40 -300 38 -19 0 -73 -6 -120 -13z m325 -675 c78 -30
176 -99 225 -161 226 -287 115 -696 -225 -829 -52 -21 -77 -24 -185 -24 -103
1 -134 5 -178 22 -158 62 -271 179 -321 332 -29 88 -29 242 0 330 58 178 203
308 389 351 65 15 230 3 295 -21z"/>
<path d="M4134 5416 c-97 -44 -156 -115 -190 -225 -18 -59 -17 -94 1 -155 31
-101 99 -178 197 -224 l48 -22 2627 0 c2060 0 2636 3 2663 13 19 6 52 22 72
35 45 28 128 120 128 142 0 9 5 21 12 28 7 7 11 47 12 100 0 76 -3 95 -27 144
-29 59 -101 132 -153 157 -16 7 -37 17 -46 22 -10 5 -1148 9 -2655 8 l-2638 0
-51 -23z"/>
<path d="M1600 3300 c-47 -4 -98 -10 -115 -14 -16 -4 -50 -12 -75 -18 -313
-72 -629 -331 -767 -628 -54 -115 -70 -164 -104 -318 -15 -68 -15 -310 0 -387
39 -204 122 -392 234 -530 172 -213 422 -373 662 -424 28 -6 71 -15 97 -21
136 -30 432 1 573 60 139 58 264 125 295 160 3 3 21 17 40 31 45 34 145 134
179 179 14 19 28 37 32 40 16 14 70 104 105 175 84 171 124 338 124 522 0 104
-4 133 -31 268 -38 179 -145 380 -283 530 -247 270 -591 404 -966 375z m274
-675 c178 -64 298 -199 342 -382 15 -67 18 -167 5 -209 -5 -16 -15 -49 -22
-74 -44 -150 -179 -285 -329 -329 -25 -7 -58 -17 -74 -22 -42 -13 -142 -10
-209 5 -183 44 -318 164 -382 342 -20 56 -25 87 -25 169 0 160 44 269 150 375
106 106 209 147 370 149 89 1 116 -3 174 -24z"/>
<path d="M4185 2447 c-133 -46 -209 -125 -244 -253 -15 -55 -14 -89 4 -149 28
-93 86 -161 180 -212 l50 -28 2646 0 2646 0 56 30 c67 35 114 81 152 150 25
44 28 61 28 140 1 109 -21 162 -94 233 -48 47 -85 70 -150 91 -48 15 -5229 14
-5274 -2z"/>
</g>
</svg>
