<svg version="1.0" xmlns="http://www.w3.org/2000/svg" width="1365.333" height="1365.333" viewBox="0 0 1024 1024"><g fill="currentColor"><path d="M153.5 44C125.7 47.5 99 60.9 78.8 81.8c-18 18.5-28.8 38.5-34.5 63.9-1.7 7.4-1.8 27.6-1.8 367.3v359.5l2.3 9c6.4 25.2 16.4 43.5 33.4 61.1 18.1 18.7 38.8 30.4 64.6 36.6l9.7 2.3h189c177.5 0 189.4-.1 196.3-1.8 17.2-4.2 31.9-10.4 44.5-18.8 6.6-4.5 21.7-16.8 21.7-17.8 0-.3 1.7-2.4 3.8-4.6 4.4-4.7 12.2-14.9 12.2-15.9 0-.4 1.3-2.6 2.8-4.9 2.6-3.9 3.6-5.9 7.6-15 2.9-6.5 6.6-19.6 8.5-30.3 1.6-8.6 1.5-109.5-.1-114.3-5-15.7-14.2-25.3-29.7-31.2-1.8-.7-7.3-1.2-12.1-1.2s-10.3.5-12.1 1.2c-17 6.5-27.1 17.5-30.5 33.5-1 4.5-1.3 18.6-1.4 54.1 0 51.1 0 50.7-5 60.4-2.6 4.9-12.3 14.1-17.6 16.6-9.8 4.6-3.4 4.5-190.4 4.5-148.5 0-177.2-.2-181.1-1.4-14.7-4.5-25-14.7-29.4-29.3-2.2-7.1-2.2-698.3-.1-705.4 4.5-14.7 14.7-25 29.3-29.4 4.1-1.3 29.5-1.5 181.3-1.5 187 0 180.6-.1 190.4 4.5 5.3 2.5 15 11.7 17.6 16.6 5 9.7 5 9.3 5 60.4.1 35.6.4 49.6 1.4 54.1 3.4 15.9 13.6 27.1 30.5 33.5 1.8.7 7.3 1.2 12.1 1.2s10.3-.5 12.1-1.2c15.3-5.8 24.9-15.7 29.8-31 1.5-4.7 1.5-106.2 0-114.5-2.3-12.6-6.1-25.5-10.1-33.9-1.6-3.1-2.8-6-2.8-6.3 0-.3-1.3-2.5-3-4.9-1.7-2.4-3-4.7-3-5.1 0-1-7.6-10.9-13.5-17.5-9.7-11-26.2-23.3-39.5-29.6-7.6-3.6-15.4-6.4-26.5-9.5l-8-2.2-186.5-.2c-102.6-.1-189.2.2-192.5.6z"/><path d="M757.5 299.4c-11.2 3.1-23.1 12.2-27.8 21-4.2 8.1-4.9 11-5 21.6-.1 9.9.1 10.9 3.2 17.5s6.5 10.2 54.2 57.7c28 27.9 50.9 51.2 50.9 51.7 0 .6-104.7.8-287.2.4-192.5-.3-289.9-.2-295.1.5-16.9 2.2-29.4 12.6-36.6 30.5-1.4 3.6-1.4 20.8 0 24.4 6 15 15 24.1 28.4 29 4.8 1.7 17.2 1.8 297.8 1.6 178.4 0 292.7.3 292.7.8s-22.9 23.8-50.9 51.7c-47.9 47.7-51.1 51.1-54.2 57.7-3.1 6.6-3.3 7.7-3.2 17.5 0 6.6.6 11.8 1.5 14 6.4 15.9 18.3 25.8 34.9 29 8.2 1.6 16.1.3 25.9-4.4 6-2.8 13.2-9.7 96.6-93.5 98.7-99 94.8-94.6 97.3-109.1 1.4-8.4 0-17.3-4.1-25.6-2.6-5.3-13.9-17-92.2-95.5-49-49.2-91.2-90.9-93.8-92.7-2.6-1.8-5.3-3.2-6.1-3.2-.7 0-1.7-.3-2.1-.7-2.8-2.8-17.7-4-25.1-1.9z"/></g></svg>