<?xml version="1.0" standalone="no"?>
<!DOCTYPE svg PUBLIC "-//W3C//DTD SVG 20010904//EN"
 "http://www.w3.org/TR/2001/REC-SVG-20010904/DTD/svg10.dtd">
<svg version="1.0" xmlns="http://www.w3.org/2000/svg"
 width="1024.000000pt" height="1024.000000pt" viewBox="0 0 1024.000000 1024.000000"
 preserveAspectRatio="xMidYMid meet">
<metadata>
Created by potrace 1.16, written by Peter Selinger 2001-2019
</metadata>
<g transform="translate(0.000000,1024.000000) scale(0.100000,-0.100000)"
fill="currentColor" stroke="none">
<path d="M508 8945 c-138 -30 -219 -75 -326 -181 -64 -65 -90 -100 -122 -164
-53 -111 -63 -168 -57 -319 7 -183 51 -284 177 -412 102 -104 203 -158 348
-188 75 -16 9099 -16 9174 0 143 29 239 80 339 179 82 81 140 172 164 261 9
30 20 62 25 71 13 22 13 222 1 246 -5 9 -16 42 -25 72 -45 151 -183 311 -329
380 -159 76 284 70 -4770 69 -3603 -1 -4554 -4 -4599 -14z"/>
<path d="M515 5745 c-139 -30 -232 -80 -331 -179 -129 -129 -184 -264 -184
-451 0 -187 55 -322 184 -451 101 -101 210 -158 350 -183 84 -15 9078 -15
9162 0 143 26 249 82 354 188 81 82 140 183 163 279 6 28 15 52 19 52 5 0 8
52 8 115 0 63 -3 115 -8 115 -4 0 -13 24 -19 53 -23 98 -81 195 -168 282 -106
107 -204 158 -349 184 -95 17 -9101 13 -9181 -4z"/>
<path d="M510 2545 c-143 -34 -229 -82 -330 -184 -75 -75 -121 -149 -157 -246
-26 -72 -26 -328 0 -400 37 -101 82 -170 162 -250 104 -104 196 -154 343 -184
75 -16 9099 -16 9174 0 143 29 239 80 339 179 82 81 140 172 164 261 9 30 20
62 25 71 13 23 13 223 0 246 -5 9 -16 41 -25 71 -24 89 -82 180 -164 261 -100
99 -196 150 -339 179 -84 17 -9118 13 -9192 -4z"/>
</g>
</svg>
