<?xml version="1.0" standalone="no"?>
<!DOCTYPE svg PUBLIC "-//W3C//DTD SVG 20010904//EN"
 "http://www.w3.org/TR/2001/REC-SVG-20010904/DTD/svg10.dtd">
<svg version="1.0" xmlns="http://www.w3.org/2000/svg"
 width="1024.000000pt" height="1024.000000pt" viewBox="0 0 1024.000000 1024.000000"
 preserveAspectRatio="xMidYMid meet">
<metadata>
Created by potrace 1.16, written by Peter Selinger 2001-2019
</metadata>
<g transform="translate(0.000000,1024.000000) scale(0.100000,-0.100000)"
fill="currentColor" stroke="none">
<path d="M4950 10230 c0 -5 -14 -10 -31 -10 -76 0 -292 -70 -409 -134 -417
-224 -680 -662 -680 -1131 0 -195 38 -365 123 -545 144 -306 440 -572 744
-669 295 -94 541 -94 836 0 236 75 499 277 644 494 57 86 143 250 143 274 0 6
4 19 9 29 5 9 14 35 19 57 6 22 15 58 20 80 65 259 31 565 -92 825 -140 297
-386 527 -691 648 -92 36 -229 72 -274 72 -17 0 -31 5 -31 10 0 6 -62 10 -165
10 -103 0 -165 -4 -165 -10z"/>
<path d="M4945 6389 c-242 -45 -373 -95 -549 -212 -352 -235 -566 -636 -566
-1062 0 -343 129 -654 375 -901 246 -248 570 -384 916 -384 59 0 131 5 161 11
29 6 78 15 108 21 371 73 724 355 891 713 21 45 47 111 58 146 18 61 25 90 50
217 6 30 11 108 11 175 0 360 -144 690 -410 940 -165 156 -391 274 -600 315
-30 6 -79 15 -108 21 -63 13 -266 12 -337 0z"/>
<path d="M4945 2549 c-240 -44 -373 -95 -550 -213 -235 -155 -446 -444 -514
-703 -40 -155 -51 -229 -51 -358 0 -383 178 -753 477 -994 148 -119 299 -196
489 -248 93 -26 112 -27 314 -28 237 0 301 10 475 77 415 160 717 531 796 978
26 147 21 362 -12 493 -36 143 -41 159 -92 267 -144 306 -440 572 -744 669
-202 64 -432 88 -588 60z"/>
</g>
</svg>
