<?xml version="1.0" standalone="no"?>
<!DOCTYPE svg PUBLIC "-//W3C//DTD SVG 20010904//EN"
 "http://www.w3.org/TR/2001/REC-SVG-20010904/DTD/svg10.dtd">
<svg version="1.0" xmlns="http://www.w3.org/2000/svg"
 width="1024.000000pt" height="1024.000000pt" viewBox="0 0 1024.000000 1024.000000"
 preserveAspectRatio="xMidYMid meet">
<metadata>
Created by potrace 1.16, written by Peter Selinger 2001-2019
</metadata>
<g transform="translate(0.000000,1024.000000) scale(0.100000,-0.100000)"
fill="currentColor" stroke="none">
<path d="M4555 7408 c-115 -28 -150 -42 -230 -98 -75 -52 -157 -154 -184 -230
-7 -19 -17 -44 -21 -55 -21 -54 -28 -161 -15 -230 15 -83 18 -91 58 -175 28
-59 94 -127 749 -782 395 -395 718 -720 718 -723 0 -3 -323 -328 -718 -723
-656 -655 -721 -723 -749 -782 -40 -84 -43 -92 -58 -175 -13 -69 -6 -176 15
-230 4 -11 14 -36 21 -55 46 -127 191 -261 334 -308 81 -26 164 -34 232 -22
110 20 150 36 233 91 31 21 457 441 980 966 964 967 945 946 990 1068 39 105
39 235 0 340 -45 122 -26 101 -990 1068 -509 511 -943 941 -965 957 -59 41
-105 65 -150 77 -127 35 -174 39 -250 21z"/>
</g>
</svg>
