<svg version="1.0" xmlns="http://www.w3.org/2000/svg" width="1365.333" height="1365.333" viewBox="0 0 1024 1024"><path d="M167.5 98.1c-10 1.3-13.5 2.1-14.1 3-.3.5-1.2.9-2 .9-4.8 0-22.6 11.3-30.9 19.5-8.2 8.3-19.5 26.1-19.5 30.9 0 .8-.4 1.7-.9 2-1 .6-1.7 4.3-3.1 16.3-1.5 12.4-.9 687.8.6 691.8.7 1.6 1.8 5 2.5 7.5s1.6 4.9 1.9 5.5c.4.5 1.3 2.6 2 4.5 2.2 5.7 10.3 17 16.6 23.4 5.1 5 19.2 15.6 20.9 15.6.3 0 2.4.8 4.8 1.9 2.3 1 5.6 2.3 7.2 2.9 11.2 3.8-.3 3.7 358 3.7 358.1 0 346.6.1 358-3.7 3-1 5.9-2.1 10.5-4.2 5.4-2.3 17.2-10.9 22.6-16.4 4.9-4.9 15.4-19.1 15.4-20.7 0-.3.8-2.4 1.9-4.8 1-2.3 2.3-5.6 2.9-7.2 3.8-11.2 3.7-2.8 3.7-285.5V312.5l-2.4-5c-3.5-7.4-200.3-204.1-207.6-207.6l-5-2.4-269-.1c-147.9-.1-271.7.3-275 .7zm609.8 148.7 86.7 86.7-.2 259.5-.3 259.5-2.3 3.3c-1.3 1.7-4 4.4-5.9 6l-3.6 2.7-58.4.3-58.3.3-.2-180.3-.3-180.3-2.3-4.6c-2.9-5.9-10.2-13.2-16.1-16.1l-4.6-2.3h-400l-4.6 2.3c-5.9 2.9-13.2 10.2-16.1 16.1l-2.3 4.6-.3 180.3-.2 180.3-58.3-.3-58.2-.3-3.6-2.4c-1.9-1.4-4.6-4.1-6-6l-2.4-3.6-.3-337.4c-.1-236.4.1-338.5.9-341.3 1.3-5.1 6.3-10.5 11.4-12.3 3.4-1.2 42.2-1.4 261.5-1.5h257.5l86.8 86.8zM672 704.5V865H351V544h321v160.5z" fill="currentColor"/></svg>