<svg version="1.0" xmlns="http://www.w3.org/2000/svg" width="1365.333" height="1365.333" viewBox="0 0 1024 1024"><g fill="currentColor"><path d="M726 129.2c-1.4.6-4 1.7-5.8 2.5-4.1 1.8-138.3 135.7-140.9 140.5-3.1 5.9-4.3 10.2-4.3 16.3 0 14.3 8.6 26 23 31.2 2.7 1 15.7 1.3 54.3 1.3H703v383h-50.7c-38.6 0-51.6.3-54.3 1.3-14.3 5.2-22.9 16.9-23 31.1 0 7 1.4 11.5 5.4 17.5 4.4 6.7 135.9 137.7 139.8 139.4 7.7 3.3 9.2 3.7 15.3 3.7 6.1 0 7.5-.4 15.2-3.7 4.6-1.9 139.5-136.8 141.5-141.3 3.5-8 3.8-9.4 3.8-15.5 0-3.5-.5-7.7-1.1-9.2-3.2-7.7-4.2-9.3-8.5-13.7-4.4-4.3-6-5.3-13.7-8.5-2-.8-17.9-1.1-53.7-1.1h-51V321h51c35.8 0 51.7-.3 53.7-1.1 7.7-3.2 9.3-4.2 13.7-8.5 2.5-2.6 5.4-6.3 6.2-8.3.9-2 2-4.4 2.5-5.3 1.3-2.5 1.1-15.2-.2-18.5-.7-1.5-1.9-4.4-2.7-6.3-2.3-5.4-135.2-138.2-141.1-141.1-2.5-1.1-5.4-2.5-6.3-3-2.4-1.2-15.7-1-18.8.3zm34.5 102.3 24.6 24.5h-99.2l24.3-24.4c13.4-13.4 24.6-24.5 25-24.5.4-.1 11.8 10.9 25.3 24.4zm0 562C747 807 735.8 818 735.5 818c-.3 0-11.5-11-25-24.5L685.9 769h99.2l-24.6 24.5zM149 224.9c-.8.5-2.8 1.5-4.5 2.2-3.9 1.8-12.6 10.5-14.4 14.4-.7 1.6-1.7 3.8-2.2 4.7-.5 1-.9 5.4-.9 9.8 0 6.4.5 9 2.6 13.6 3.3 7.2 9.6 13.5 16.8 16.8l5.7 2.6h167.4c121.6 0 168.2-.3 170.2-1.1 8.8-3.6 12.4-6.2 16.2-11.7 6.9-10.2 8.1-23.2 3-33.8-3.6-7.7-8.6-12.7-15.7-16l-5.3-2.4-168.7.1c-92.8 0-169.4.4-170.2.8zM145.6 483c-12.7 6.3-18.6 15.7-18.6 29.7 0 12.9 7.4 24.2 19.4 29.7l5.7 2.6h167.4c121.6 0 168.2-.3 170.2-1.1 8.8-3.6 12.4-6.2 16.2-11.7 6.9-10.2 8.1-23.2 3-33.8-1.6-3.5-4.6-8-6.7-10-3.3-3.2-5-4.2-12.5-7.3-2.1-.8-47.2-1.1-170.5-1.1l-167.7.1-5.9 2.9zM145.3 739.1c-6.3 3-12.6 9.1-15.2 14.5-.7 1.6-1.7 3.7-2.2 4.6-.5 1-.9 5.4-.9 9.8 0 6.4.5 9 2.6 13.6 3.3 7.2 10 13.9 17 17l5.5 2.4h167.4c121.6 0 168.2-.3 170.2-1.1 8.8-3.6 12.4-6.2 16.2-11.7 8-11.8 8-27.6 0-39.4-3.8-5.5-7.4-8.1-16.2-11.7-2-.8-48.6-1.1-170.5-1.1l-167.7.1-6.2 3z"/></g></svg>