<?xml version="1.0" standalone="no"?>
<!DOCTYPE svg PUBLIC "-//W3C//DTD SVG 20010904//EN"
 "http://www.w3.org/TR/2001/REC-SVG-20010904/DTD/svg10.dtd">
<svg version="1.0" xmlns="http://www.w3.org/2000/svg"
 width="1024.000000pt" height="1024.000000pt" viewBox="0 0 1024.000000 1024.000000"
 preserveAspectRatio="xMidYMid meet">
<metadata>
Created by potrace 1.16, written by Peter Selinger 2001-2019
</metadata>
<g transform="translate(0.000000,1024.000000) scale(0.100000,-0.100000)"
fill="currentColor" stroke="none">
<path d="M7260 8948 c-14 -6 -40 -17 -58 -25 -41 -18 -1383 -1357 -1409 -1405
-31 -59 -43 -102 -43 -163 0 -143 86 -260 230 -312 27 -10 157 -13 543 -13
l507 0 0 -1915 0 -1915 -507 0 c-386 0 -516 -3 -543 -13 -143 -52 -229 -169
-230 -311 0 -70 14 -115 54 -175 44 -67 1359 -1377 1398 -1394 77 -33 92 -37
153 -37 61 0 75 4 152 37 46 19 1395 1368 1415 1413 35 80 38 94 38 155 0 35
-5 77 -11 92 -32 77 -42 93 -85 137 -44 43 -60 53 -137 85 -20 8 -179 11 -537
11 l-510 0 0 1915 0 1915 510 0 c358 0 517 3 537 11 77 32 93 42 137 85 25 26
54 63 62 83 9 20 20 44 25 53 13 25 11 152 -2 185 -7 15 -19 44 -27 63 -23 54
-1352 1382 -1411 1411 -25 11 -54 25 -63 30 -24 12 -157 10 -188 -3z m345
-1023 l246 -245 -496 0 -496 0 243 244 c134 134 246 245 250 245 4 1 118 -109
253 -244z m0 -5620 c-135 -135 -247 -245 -250 -245 -3 0 -115 110 -250 245
l-246 245 496 0 496 0 -246 -245z"/>
<path d="M1490 7991 c-8 -5 -28 -15 -45 -22 -39 -18 -126 -105 -144 -144 -7
-16 -17 -38 -22 -47 -5 -10 -9 -54 -9 -98 0 -64 5 -90 26 -136 33 -72 96 -135
168 -168 l57 -26 1674 0 c1216 0 1682 3 1702 11 88 36 124 62 162 117 69 102
81 232 30 338 -36 77 -86 127 -157 160 l-53 24 -1687 -1 c-928 0 -1694 -4
-1702 -8z"/>
<path d="M1456 5410 c-127 -63 -186 -157 -186 -297 0 -129 74 -242 194 -297
l57 -26 1674 0 c1216 0 1682 3 1702 11 88 36 124 62 162 117 69 102 81 232 30
338 -16 35 -46 80 -67 100 -33 32 -50 42 -125 73 -21 8 -472 11 -1705 11
l-1677 -1 -59 -29z"/>
<path d="M1453 2849 c-63 -30 -126 -91 -152 -145 -7 -16 -17 -37 -22 -46 -5
-10 -9 -54 -9 -98 0 -64 5 -90 26 -136 33 -72 100 -139 170 -170 l55 -24 1674
0 c1216 0 1682 3 1702 11 88 36 124 62 162 117 80 118 80 276 0 394 -38 55
-74 81 -162 117 -20 8 -486 11 -1705 11 l-1677 -1 -62 -30z"/>
</g>
</svg>
