<?xml version="1.0" standalone="no"?>
<!DOCTYPE svg PUBLIC "-//W3C//DTD SVG 20010904//EN"
 "http://www.w3.org/TR/2001/REC-SVG-20010904/DTD/svg10.dtd">
<svg version="1.0" xmlns="http://www.w3.org/2000/svg"
 width="1024.000000pt" height="1024.000000pt" viewBox="0 0 1024.000000 1024.000000"
 preserveAspectRatio="xMidYMid meet">
<metadata>
Created by potrace 1.16, written by Peter Selinger 2001-2019
</metadata>
<g transform="translate(0.000000,1024.000000) scale(0.100000,-0.100000)"
fill="currentColor" stroke="none">
<path d="M4965 10025 c-127 -24 -177 -41 -290 -98 -199 -100 -329 -246 -464
-522 -35 -72 -168 -341 -296 -600 -368 -744 -570 -1155 -601 -1220 -39 -84
-98 -169 -137 -199 -62 -47 -112 -63 -282 -87 -38 -6 -97 -14 -130 -19 -33 -5
-93 -14 -132 -20 -40 -5 -106 -15 -145 -20 -40 -6 -102 -15 -138 -20 -36 -6
-96 -14 -135 -19 -38 -6 -101 -15 -140 -21 -86 -13 -177 -27 -270 -39 -38 -6
-101 -15 -140 -21 -38 -6 -100 -15 -137 -20 -38 -6 -99 -14 -138 -20 -38 -5
-100 -14 -137 -20 -38 -5 -99 -14 -138 -20 -38 -6 -100 -15 -138 -20 -178 -26
-205 -30 -247 -40 -25 -6 -57 -14 -73 -17 -15 -3 -30 -9 -33 -14 -3 -5 -12 -9
-20 -9 -24 0 -105 -41 -184 -93 -196 -129 -327 -311 -401 -557 -19 -63 -19
-417 0 -480 29 -96 82 -208 137 -291 41 -61 266 -290 708 -719 88 -85 185
-180 216 -210 31 -30 146 -143 256 -250 109 -107 279 -273 377 -369 98 -95
190 -192 206 -215 66 -98 71 -158 31 -386 -5 -30 -14 -84 -21 -120 -6 -36 -15
-87 -19 -115 -4 -27 -13 -78 -19 -112 -6 -35 -16 -91 -22 -125 -6 -35 -15 -85
-19 -113 -4 -27 -13 -78 -19 -112 -6 -35 -16 -91 -22 -125 -6 -35 -15 -85 -19
-113 -4 -27 -13 -77 -19 -110 -6 -33 -15 -87 -20 -120 -12 -70 -29 -170 -41
-240 -5 -27 -14 -79 -20 -115 -6 -36 -15 -92 -21 -125 -6 -33 -15 -82 -19
-110 -13 -79 -30 -175 -41 -235 -17 -87 -23 -356 -9 -420 57 -258 198 -464
416 -607 50 -32 117 -70 150 -82 32 -13 68 -27 79 -31 49 -20 221 -50 290 -50
145 0 315 49 493 142 64 33 171 89 237 123 66 34 156 81 200 105 44 24 130 69
190 100 61 31 144 75 185 97 41 22 138 73 215 113 77 40 174 91 215 113 41 22
122 65 180 95 58 30 148 77 200 105 52 27 156 81 230 120 l135 70 100 1 100 0
155 -81 c85 -44 193 -101 240 -125 47 -25 135 -71 195 -103 61 -32 148 -78
195 -103 47 -24 132 -69 190 -100 58 -30 146 -76 197 -103 51 -27 143 -75 205
-108 62 -32 154 -80 203 -106 410 -217 524 -274 603 -301 87 -29 223 -54 297
-54 145 0 357 59 470 131 25 16 48 29 51 29 3 0 39 27 79 60 173 141 285 326
335 550 14 64 8 333 -9 420 -5 30 -15 84 -21 120 -6 36 -15 92 -21 125 -6 33
-15 83 -19 110 -8 51 -22 131 -41 240 -6 33 -15 83 -19 110 -8 51 -22 131 -41
240 -6 33 -15 83 -19 110 -4 28 -13 78 -19 113 -6 34 -16 90 -22 125 -6 34
-15 85 -19 112 -4 28 -13 77 -19 110 -19 109 -33 189 -41 240 -4 28 -13 79
-19 115 -7 36 -16 90 -21 120 -40 227 -35 288 31 385 15 22 98 110 185 195 88
85 249 243 358 350 222 218 264 258 492 480 740 720 758 740 843 963 20 52 31
95 31 120 0 15 5 27 10 27 6 0 10 60 10 159 0 96 -4 162 -10 166 -5 3 -10 17
-10 30 0 13 -4 34 -9 47 -5 13 -14 41 -21 63 -40 126 -134 277 -237 376 -96
94 -277 209 -327 209 -8 0 -17 4 -20 9 -3 5 -18 11 -33 14 -16 3 -48 11 -73
17 -25 6 -74 15 -110 20 -36 5 -96 14 -135 20 -38 6 -101 15 -140 21 -38 5
-99 14 -135 19 -36 6 -96 14 -135 19 -38 6 -101 15 -140 21 -38 6 -100 15
-137 20 -73 11 -176 26 -273 40 -33 5 -93 14 -132 20 -40 5 -104 15 -143 20
-38 6 -100 14 -137 20 -38 5 -99 14 -138 20 -38 6 -100 15 -137 20 -38 6 -99
15 -138 20 -38 6 -100 14 -137 19 -165 23 -218 40 -280 87 -29 22 -113 133
-113 149 0 3 -93 194 -206 423 -499 1008 -655 1325 -715 1447 -113 232 -224
371 -376 472 -201 134 -455 189 -678 148z m298 -635 c64 -30 136 -111 182
-206 61 -127 351 -717 567 -1154 110 -223 250 -506 311 -630 61 -124 115 -226
119 -228 4 -2 8 -8 8 -14 0 -19 66 -105 135 -174 122 -122 292 -221 440 -256
57 -13 229 -41 360 -58 39 -5 102 -14 140 -20 39 -6 102 -15 140 -21 39 -5
100 -14 138 -19 37 -6 97 -14 135 -20 37 -5 99 -14 137 -20 39 -5 104 -14 145
-20 41 -7 100 -15 130 -20 30 -4 91 -13 135 -19 79 -11 162 -23 280 -41 60 -9
126 -18 280 -40 44 -6 109 -16 145 -21 36 -5 85 -12 110 -15 163 -19 269 -107
319 -263 22 -67 10 -155 -31 -238 -12 -25 -77 -97 -157 -175 -75 -73 -307
-300 -516 -503 -922 -898 -1074 -1049 -1112 -1105 -34 -52 -106 -193 -117
-230 -40 -141 -61 -280 -53 -352 8 -68 23 -165 37 -248 7 -36 16 -87 20 -115
4 -27 13 -79 20 -115 7 -36 16 -87 20 -115 4 -27 13 -78 19 -112 6 -35 16 -91
22 -125 6 -35 15 -85 19 -113 8 -47 19 -116 40 -230 4 -27 13 -78 19 -112 6
-35 16 -91 22 -125 6 -35 15 -85 19 -113 8 -47 19 -116 40 -230 18 -103 30
-172 39 -230 16 -96 32 -186 42 -240 18 -98 22 -215 8 -258 -50 -158 -223
-265 -379 -235 -50 10 -159 62 -440 210 -47 25 -130 69 -185 98 -55 29 -138
73 -185 98 -47 24 -130 68 -185 97 -55 28 -136 71 -180 95 -44 24 -129 69
-190 100 -60 31 -146 76 -190 100 -44 24 -129 69 -190 100 -60 31 -150 79
-200 105 -189 102 -245 126 -350 153 -165 42 -295 42 -460 0 -106 -27 -135
-40 -325 -141 -52 -27 -135 -71 -185 -97 -49 -26 -128 -67 -175 -92 -154 -82
-283 -150 -395 -208 -60 -31 -148 -77 -195 -102 -47 -25 -129 -68 -182 -97
-54 -28 -141 -73 -193 -101 -52 -27 -138 -72 -190 -100 -52 -27 -137 -72 -187
-99 -51 -27 -117 -61 -146 -76 -177 -92 -360 -46 -469 120 -46 71 -53 170 -23
340 24 134 29 163 40 225 6 36 15 88 20 115 19 109 30 173 40 235 6 36 15 88
20 115 4 28 13 78 19 113 6 34 16 90 22 125 6 34 15 85 19 112 8 47 19 116 40
230 4 28 13 78 19 113 6 34 16 90 22 125 6 34 15 85 19 112 8 51 22 131 41
240 59 333 64 396 44 515 -9 52 -19 110 -22 128 -3 18 -9 35 -14 38 -5 3 -9
14 -9 24 0 22 -71 166 -113 230 -38 56 -280 297 -1132 1125 -620 603 -631 614
-653 658 -31 63 -42 105 -42 156 0 122 78 250 186 307 36 19 106 32 339 64 44
6 105 15 135 20 30 5 91 14 135 20 74 10 108 15 280 40 146 21 208 30 275 40
97 14 198 29 240 35 19 3 67 10 105 15 63 8 145 20 245 35 46 7 153 23 240 35
38 6 102 14 140 20 216 31 237 35 330 61 127 37 282 131 389 238 111 110 121
126 277 441 226 455 865 1752 889 1803 40 85 134 166 220 188 56 15 186 3 238
-21z"/>
</g>
</svg>
