<?xml version="1.0" standalone="no"?>
<!DOCTYPE svg PUBLIC "-//W3C//DTD SVG 20010904//EN"
 "http://www.w3.org/TR/2001/REC-SVG-20010904/DTD/svg10.dtd">
<svg version="1.0" xmlns="http://www.w3.org/2000/svg"
 width="1024.000000pt" height="1024.000000pt" viewBox="0 0 1024.000000 1024.000000"
 preserveAspectRatio="xMidYMid meet">
<metadata>
Created by potrace 1.16, written by Peter Selinger 2001-2019
</metadata>
<g transform="translate(0.000000,1024.000000) scale(0.100000,-0.100000)"
fill="currentColor" stroke="none">
<path d="M5020 10230 c0 -5 -6 -10 -13 -10 -46 0 -156 -96 -183 -159 -9 -20
-20 -44 -25 -53 -12 -23 -12 -1123 0 -1146 5 -9 16 -33 25 -53 19 -44 98 -125
140 -143 76 -32 91 -36 151 -36 35 0 77 5 92 11 77 32 93 42 137 85 43 44 53
60 85 137 14 35 16 1118 2 1145 -5 9 -16 33 -25 53 -27 63 -137 159 -183 159
-7 0 -13 5 -13 10 0 6 -38 10 -95 10 -57 0 -95 -4 -95 -10z"/>
<path d="M1635 8827 c-62 -21 -85 -32 -85 -39 0 -5 -6 -8 -13 -8 -16 0 -87
-72 -87 -88 0 -7 -3 -12 -8 -12 -7 0 -20 -28 -40 -91 -15 -43 -16 -146 -2
-154 6 -3 10 -14 10 -25 0 -10 10 -36 21 -58 27 -49 772 -793 814 -811 17 -7
38 -17 47 -22 10 -5 58 -9 108 -9 50 0 98 4 108 9 9 5 29 14 45 22 46 21 116
98 143 158 21 45 26 71 26 137 0 45 -4 90 -10 100 -5 10 -16 33 -23 49 -18 42
-762 787 -811 814 -22 11 -48 21 -58 21 -11 0 -22 5 -25 10 -8 13 -121 11
-160 -3z"/>
<path d="M8420 8828 c-93 -39 -123 -66 -486 -431 -209 -210 -385 -394 -392
-409 -7 -16 -17 -39 -23 -52 -7 -14 -12 -60 -11 -103 0 -63 5 -89 26 -135 28
-61 95 -135 142 -157 16 -7 37 -18 47 -23 24 -12 190 -12 214 0 10 6 32 16 48
23 42 18 787 762 814 811 11 22 21 48 21 58 0 11 5 22 10 25 6 3 10 37 10 75
0 38 -4 72 -10 75 -5 3 -10 14 -10 24 0 21 -22 71 -32 71 -5 0 -8 6 -8 13 0
16 -72 87 -88 87 -7 0 -12 3 -12 8 0 10 -50 32 -71 32 -10 0 -21 5 -24 10 -8
13 -133 12 -165 -2z"/>
<path d="M4820 7988 c-100 -11 -206 -28 -255 -38 -22 -5 -65 -14 -95 -21 -30
-6 -66 -15 -80 -19 -14 -4 -45 -13 -70 -20 -118 -33 -231 -74 -282 -101 -10
-5 -22 -9 -28 -9 -14 0 -262 -123 -325 -160 -27 -17 -57 -33 -65 -37 -14 -6
-152 -96 -175 -115 -5 -4 -59 -46 -120 -93 -213 -166 -456 -429 -615 -665 -33
-49 -60 -91 -60 -94 0 -2 -17 -33 -38 -67 -106 -177 -212 -428 -272 -639 -7
-25 -16 -56 -20 -70 -5 -14 -11 -38 -14 -55 -3 -16 -12 -59 -19 -95 -14 -63
-26 -142 -47 -303 -13 -101 -13 -443 0 -544 21 -161 33 -240 47 -303 7 -36 16
-78 19 -95 3 -16 9 -41 14 -55 4 -14 13 -45 20 -70 60 -211 166 -462 272 -639
21 -34 38 -65 38 -67 0 -6 101 -157 110 -164 3 -3 17 -21 30 -40 127 -185 434
-493 620 -620 19 -13 37 -27 40 -30 7 -9 152 -105 170 -113 8 -4 38 -20 65
-37 28 -16 102 -55 165 -85 110 -54 129 -62 185 -85 14 -5 36 -14 50 -20 14
-5 35 -14 48 -19 30 -13 114 -41 157 -53 19 -5 51 -14 70 -19 111 -32 293 -66
480 -89 110 -13 440 -13 550 0 188 23 365 56 483 89 20 6 52 15 70 20 40 11
126 39 152 51 11 4 40 16 65 25 98 36 295 131 389 187 34 21 65 38 67 38 12 0
192 127 281 198 205 164 423 388 536 552 17 25 34 47 37 50 9 7 105 151 113
170 4 8 20 38 36 65 52 86 153 295 186 385 9 25 21 54 25 65 11 25 40 110 51
150 4 17 13 48 19 70 23 81 52 220 69 330 25 164 31 251 31 430 0 179 -6 266
-31 430 -17 109 -47 251 -68 328 -6 20 -15 52 -20 70 -11 40 -39 126 -51 152
-4 11 -16 40 -25 65 -36 98 -131 295 -187 389 -21 34 -38 65 -38 67 0 3 -27
45 -60 94 -155 231 -394 491 -610 663 -98 78 -282 207 -295 207 -4 0 -25 13
-48 28 -38 25 -236 125 -327 165 -158 69 -374 136 -565 175 -47 10 -92 17
-288 42 -92 12 -460 11 -567 -2z m495 -649 c123 -13 255 -36 350 -60 54 -14
225 -68 253 -79 12 -6 32 -14 45 -19 55 -22 246 -118 284 -143 23 -15 45 -28
50 -28 4 0 32 -18 61 -40 29 -22 55 -40 57 -40 6 0 12 -5 131 -104 101 -83
257 -243 320 -327 105 -141 124 -167 144 -204 12 -22 30 -51 39 -65 10 -14 38
-68 63 -120 41 -84 59 -124 88 -195 11 -26 44 -128 60 -185 7 -25 16 -56 20
-70 8 -24 21 -88 39 -192 16 -90 31 -259 31 -353 0 -94 -15 -263 -31 -352 -18
-105 -31 -169 -39 -193 -4 -14 -13 -45 -20 -70 -16 -57 -49 -159 -60 -185 -29
-71 -47 -111 -88 -195 -25 -52 -53 -106 -63 -120 -9 -14 -27 -43 -39 -65 -56
-101 -217 -301 -331 -412 -116 -113 -291 -251 -384 -303 -22 -12 -51 -30 -65
-39 -26 -18 -184 -96 -255 -126 -22 -9 -49 -21 -60 -26 -57 -24 -254 -81 -340
-98 -299 -60 -558 -66 -812 -20 -105 18 -169 31 -193 39 -14 4 -45 13 -70 20
-175 49 -410 150 -517 222 -23 15 -44 28 -47 28 -8 0 -89 57 -191 134 -169
127 -435 421 -524 579 -13 23 -31 53 -40 67 -10 14 -38 68 -63 120 -41 84 -59
124 -88 195 -11 26 -44 128 -60 185 -7 25 -16 56 -20 70 -4 14 -13 52 -20 85
-67 347 -67 579 1 920 16 83 76 288 98 340 5 11 17 38 26 60 119 280 265 496
485 715 189 190 363 316 580 422 159 77 238 108 380 148 25 7 56 16 70 20 24
7 63 16 190 39 161 30 391 38 555 20z"/>
<path d="M220 5430 c-8 -4 -32 -16 -53 -25 -47 -20 -120 -92 -144 -142 -25
-53 -26 -242 -1 -294 23 -47 102 -126 147 -145 20 -9 44 -20 53 -25 27 -14
1110 -12 1145 2 77 32 93 42 137 85 43 44 53 60 85 137 14 36 14 148 0 184
-32 77 -42 93 -85 137 -44 43 -60 53 -137 85 -34 13 -1123 15 -1147 1z"/>
<path d="M8860 5430 c-8 -4 -31 -15 -51 -24 -44 -19 -125 -98 -143 -140 -32
-76 -36 -91 -36 -151 0 -60 4 -75 36 -151 18 -42 99 -121 143 -140 20 -9 44
-20 53 -25 23 -12 1123 -12 1146 0 9 5 33 16 53 25 63 27 159 137 159 183 0 7
5 13 10 13 6 0 10 38 10 95 0 57 -4 95 -10 95 -5 0 -10 6 -10 13 0 46 -96 156
-159 183 -20 9 -44 20 -53 25 -22 11 -1128 11 -1148 -1z"/>
<path d="M2290 2711 c-8 -5 -28 -15 -45 -22 -47 -21 -789 -764 -813 -813 -36
-76 -42 -97 -42 -151 0 -55 6 -75 44 -154 64 -134 232 -212 365 -170 94 30
122 54 493 427 432 433 428 428 428 572 0 72 -4 95 -25 138 -33 68 -88 124
-155 156 -46 22 -66 26 -144 25 -50 0 -98 -4 -106 -8z"/>
<path d="M7720 2711 c-8 -5 -28 -15 -45 -22 -39 -18 -116 -95 -134 -134 -7
-16 -18 -38 -23 -48 -12 -24 -12 -190 0 -214 6 -10 16 -31 23 -48 19 -42 761
-787 811 -814 22 -11 48 -21 58 -21 11 0 22 -4 25 -10 8 -14 110 -13 154 1 51
16 84 32 99 47 8 6 22 17 32 22 27 15 79 94 101 154 21 57 25 141 8 183 -38
94 -64 123 -432 489 -210 209 -395 386 -412 393 -16 7 -38 17 -47 22 -22 11
-198 11 -218 0z"/>
<path d="M5020 1588 c-14 -6 -39 -17 -56 -24 -42 -18 -121 -99 -140 -143 -9
-20 -20 -44 -25 -53 -12 -23 -12 -1123 0 -1146 5 -9 16 -33 25 -53 19 -45 98
-124 145 -147 51 -24 241 -24 292 0 47 23 126 102 145 147 9 20 20 44 25 53
14 27 12 1110 -2 1145 -32 77 -42 93 -85 137 -44 43 -60 53 -137 85 -35 14
-153 13 -187 -1z"/>
</g>
</svg>
