<svg version="1.0" xmlns="http://www.w3.org/2000/svg" width="1365.333" height="1365.333" viewBox="0 0 1024 1024"><g fill="currentColor"><path d="M364 .7c0 .5-2 1.6-4.5 2.6-5.5 2.3-11.6 8.3-14.6 14.5-2.4 4.7-2.4 4.8-2.9 53.2l-.5 48.5h-238l-4.6 2.3C87.3 127.6 81 137.3 81 149.5c0 12.3 6.5 22.2 17.9 27.6l4.6 2.2h816l4.7-2.3c11.5-5.4 17.8-15.2 17.8-27.5 0-12.2-6.3-21.9-17.9-27.7l-4.6-2.3h-238L681 71c-.5-48.4-.5-48.5-2.9-53.2-3-6.2-9.1-12.2-14.6-14.5-2.5-1-4.5-2.1-4.5-2.6 0-.4-66.4-.7-147.5-.7S364 .3 364 .7zM621 90v30H402V60h219v30zM159.3 250c-4.5 1-12.3 6.3-15.3 10.2-2.4 3.2-3.5 5.2-5.9 11.1-.8 2-1.1 85.4-1.1 312.5 0 263.6.3 312 1.5 325.2 1.5 15.5 2.9 26.3 4 31 .3 1.4 1.1 4.5 1.7 7 2.7 11.7 9.4 27.2 15.7 36.3 4.3 6.2 17 18 23.7 21.9 15.2 8.8 28.3 12.9 54.4 17 12.6 1.9 534.4 1.9 547 0 36.8-5.8 54.2-13.3 70.6-30.3 17.5-18.2 25.7-42.2 29.4-85.9 1.5-18.4 1.4-630.9-.1-634.7-3.2-7.7-4.3-9.7-7.2-12.7-1.8-1.8-5.4-4.6-8.2-6.2l-5-2.9-351-.2c-193.1 0-352.4.2-354.2.7zM825 605.7c0 308 0 306.6-3.9 323.8-2.1 9.8-6.5 18.9-10.7 22.6-5.5 4.8-18 8.6-36.9 11.1-14.7 1.9-509.3 1.9-524 0-33-4.4-41.6-10-47-30.7-4.6-17.5-4.5-11-4.5-326.3V309h627v296.7z"/><path d="M367 404.7c-8.3 2.9-16 9.3-19.3 16.3l-2.2 4.5-.3 209.5c-.2 163.8 0 210.4 1 213.5 2.4 8 8.2 14.5 16.8 19.1 5.5 2.9 18.1 2.6 24.4-.5 6.3-3.1 11.5-8.3 14.6-14.6l2.5-5v-421l-2.3-4.5c-5.7-11.6-15.7-18.1-27.3-17.9-3.5 0-7.1.3-7.9.6zM504 404.7c-8.8 3.2-15.5 8.5-18.7 14.6-4.4 8.6-4.3 2.1-4.3 217.7 0 212.8 0 209.5 3.9 216.9 2.4 4.4 8.5 10.3 13.5 12.9 4.3 2.2 6.4 2.7 13.1 2.7 6.7 0 8.8-.5 13.1-2.7 5.2-2.8 11.3-8.7 13.7-13.5 3.7-7.1 3.7-9.5 3.7-217.1 0-221.7.3-209.6-5.6-218.6-3.7-5.7-8-9.2-14.2-11.6-5-1.9-14.6-2.6-18.2-1.3zM636.3 406.4c-6.4 3-12.1 8.7-15.4 15.2l-2.4 4.9v421l2.5 5c3.1 6.3 8.3 11.5 14.6 14.6 7.1 3.5 18.8 3.4 25.9-.3 7.3-3.8 13-10.5 15.4-18.3.9-3.1 1.1-50.2.9-213.5l-.3-209.5-2.2-4.5c-2.6-5.5-8.2-11-14.3-14.2-6.7-3.4-17.7-3.6-24.7-.4z"/></g></svg>