<?xml version="1.0" standalone="no"?>
<!DOCTYPE svg PUBLIC "-//W3C//DTD SVG 20010904//EN"
 "http://www.w3.org/TR/2001/REC-SVG-20010904/DTD/svg10.dtd">
<svg version="1.0" xmlns="http://www.w3.org/2000/svg"
 width="1024.000000pt" height="1024.000000pt" viewBox="0 0 1024.000000 1024.000000"
 preserveAspectRatio="xMidYMid meet">
<metadata>
Created by potrace 1.16, written by Peter Selinger 2001-2019
</metadata>
<g transform="translate(0.000000,1024.000000) scale(0.100000,-0.100000)"
fill="currentColor" stroke="none">
<path d="M3640 10233 c0 -5 -20 -16 -45 -26 -55 -23 -116 -83 -146 -145 -24
-47 -24 -48 -29 -532 l-5 -485 -1190 0 -1190 0 -46 -23 c-116 -58 -179 -155
-179 -277 0 -123 65 -222 179 -276 l46 -22 4080 0 4080 0 47 23 c115 54 178
152 178 275 0 122 -63 219 -179 277 l-46 23 -1190 0 -1190 0 -5 485 c-5 484
-5 485 -29 532 -30 62 -91 122 -146 145 -25 10 -45 21 -45 26 0 4 -664 7
-1475 7 -811 0 -1475 -3 -1475 -7z m2570 -893 l0 -300 -1095 0 -1095 0 0 300
0 300 1095 0 1095 0 0 -300z"/>
<path d="M1593 7740 c-45 -10 -123 -63 -153 -102 -24 -32 -35 -52 -59 -111 -8
-20 -11 -854 -11 -3125 0 -2636 3 -3120 15 -3252 15 -155 29 -263 40 -310 3
-14 11 -45 17 -70 27 -117 94 -272 157 -363 43 -62 170 -180 237 -219 152 -88
283 -129 544 -170 126 -19 5344 -19 5470 0 368 58 542 133 706 303 175 182
257 422 294 859 15 184 14 6309 -1 6347 -32 77 -43 97 -72 127 -18 18 -54 46
-82 62 l-50 29 -3510 2 c-1931 0 -3524 -2 -3542 -7z m6657 -3557 c0 -3080 0
-3066 -39 -3238 -21 -98 -65 -189 -107 -226 -55 -48 -180 -86 -369 -111 -147
-19 -5093 -19 -5240 0 -330 44 -416 100 -470 307 -46 175 -45 110 -45 3263 l0
2972 3135 0 3135 0 0 -2967z"/>
<path d="M3670 6193 c-83 -29 -160 -93 -193 -163 l-22 -45 -3 -2095 c-2 -1638
0 -2104 10 -2135 24 -80 82 -145 168 -191 55 -29 181 -26 244 5 63 31 115 83
146 146 l25 50 0 2105 0 2105 -23 45 c-57 116 -157 181 -273 179 -35 0 -71 -3
-79 -6z"/>
<path d="M5040 6193 c-88 -32 -155 -85 -187 -146 -44 -86 -43 -21 -43 -2177 0
-2128 0 -2095 39 -2169 24 -44 85 -103 135 -129 43 -22 64 -27 131 -27 67 0
88 5 131 27 52 28 113 87 137 135 37 71 37 95 37 2171 0 2217 3 2096 -56 2186
-37 57 -80 92 -142 116 -50 19 -146 26 -182 13z"/>
<path d="M6363 6176 c-64 -30 -121 -87 -154 -152 l-24 -49 0 -2105 0 -2105 25
-50 c31 -63 83 -115 146 -146 71 -35 188 -34 259 3 73 38 130 105 154 183 9
31 11 502 9 2135 l-3 2095 -22 45 c-26 55 -82 110 -143 142 -67 34 -177 36
-247 4z"/>
</g>
</svg>
