<?xml version="1.0" encoding="UTF-8"?>
<!DOCTYPE svg PUBLIC "-//W3C//DTD SVG 1.1//EN" "http://www.w3.org/Graphics/SVG/1.1/DTD/svg11.dtd">
<svg xmlns="http://www.w3.org/2000/svg" version="1.1" width="256px" height="256px" style="shape-rendering:geometricPrecision; text-rendering:geometricPrecision; image-rendering:optimizeQuality; fill-rule:evenodd; clip-rule:evenodd" xmlns:xlink="http://www.w3.org/1999/xlink">
<g><path style="opacity:0.986" fill="#306bfe" d="M 111.5,-0.5 C 122.167,-0.5 132.833,-0.5 143.5,-0.5C 197.548,8.7041 233.382,39.3708 251,91.5C 252.715,98.2585 254.215,104.925 255.5,111.5C 255.5,122.167 255.5,132.833 255.5,143.5C 246.296,197.548 215.629,233.382 163.5,251C 156.741,252.715 150.075,254.215 143.5,255.5C 132.833,255.5 122.167,255.5 111.5,255.5C 57.4517,246.296 21.6184,215.629 4,163.5C 2.28494,156.741 0.784944,150.075 -0.5,143.5C -0.5,132.833 -0.5,122.167 -0.5,111.5C 8.7041,57.4517 39.3708,21.6184 91.5,4C 98.2585,2.28494 104.925,0.784944 111.5,-0.5 Z"/></g>
<g><path style="opacity:1" fill="#fdb334" d="M 163.5,59.5 C 163.5,62.5 163.5,65.5 163.5,68.5C 139.5,68.5 115.5,68.5 91.5,68.5C 91.5,65.5 91.5,62.5 91.5,59.5C 91.5,56.8333 91.5,54.1667 91.5,51.5C 98.1667,51.5 104.833,51.5 111.5,51.5C 112.962,39.0836 119.962,33.9169 132.5,36C 139.736,38.6389 143.402,43.8056 143.5,51.5C 150.167,51.5 156.833,51.5 163.5,51.5C 163.5,54.1667 163.5,56.8333 163.5,59.5 Z"/></g>
<g><path style="opacity:1" fill="#3f6df7" d="M 124.5,45.5 C 132.807,45.2804 135.14,48.7804 131.5,56C 125.787,59.0594 122.453,57.3927 121.5,51C 121.863,48.8077 122.863,46.9744 124.5,45.5 Z"/></g>
<g><path style="opacity:1" fill="#434b62" d="M 91.5,59.5 C 91.5,62.5 91.5,65.5 91.5,68.5C 91.5,69.5 91.5,70.5 91.5,71.5C 86.8215,71.3342 82.1548,71.5008 77.5,72C 77,72.5 76.5,73 76,73.5C 75.3333,114.833 75.3333,156.167 76,197.5C 76.5,198 77,198.5 77.5,199C 110.833,199.667 144.167,199.667 177.5,199C 178,198.5 178.5,198 179,197.5C 179.667,156.167 179.667,114.833 179,73.5C 178.5,73 178,72.5 177.5,72C 172.845,71.5008 168.179,71.3342 163.5,71.5C 163.5,70.5 163.5,69.5 163.5,68.5C 163.5,65.5 163.5,62.5 163.5,59.5C 171.917,59.0943 180.251,59.5943 188.5,61C 189.701,61.9025 190.535,63.0692 191,64.5C 191.667,111.5 191.667,158.5 191,205.5C 190.5,208.667 188.667,210.5 185.5,211C 146.5,211.667 107.5,211.667 68.5,211C 65.8981,210.065 64.3981,208.232 64,205.5C 63.3333,158.5 63.3333,111.5 64,64.5C 64.8333,62.3333 66.3333,60.8333 68.5,60C 76.1594,59.5003 83.8261,59.3336 91.5,59.5 Z"/></g>
<g><path style="opacity:1" fill="#fecf5a" d="M 91.5,68.5 C 115.5,68.5 139.5,68.5 163.5,68.5C 163.5,69.5 163.5,70.5 163.5,71.5C 163.5,74.1667 163.5,76.8333 163.5,79.5C 139.5,79.5 115.5,79.5 91.5,79.5C 91.5,76.8333 91.5,74.1667 91.5,71.5C 91.5,70.5 91.5,69.5 91.5,68.5 Z"/></g>
<g><path style="opacity:1" fill="#fefefe" d="M 91.5,71.5 C 91.5,74.1667 91.5,76.8333 91.5,79.5C 115.5,79.5 139.5,79.5 163.5,79.5C 163.5,76.8333 163.5,74.1667 163.5,71.5C 168.179,71.3342 172.845,71.5008 177.5,72C 178,72.5 178.5,73 179,73.5C 179.667,114.833 179.667,156.167 179,197.5C 178.5,198 178,198.5 177.5,199C 144.167,199.667 110.833,199.667 77.5,199C 77,198.5 76.5,198 76,197.5C 75.3333,156.167 75.3333,114.833 76,73.5C 76.5,73 77,72.5 77.5,72C 82.1548,71.5008 86.8215,71.3342 91.5,71.5 Z"/></g>
<g><path style="opacity:1" fill="#36cf83" d="M 150.5,111.5 C 154.08,113.408 157.08,116.074 159.5,119.5C 145.167,132.667 130.833,145.833 116.5,159C 115.833,159.667 115.167,159.667 114.5,159C 108.333,152.833 102.167,146.667 96,140.5C 97.4309,136.876 99.9309,133.876 103.5,131.5C 107.318,134.818 110.985,138.318 114.5,142C 115.5,142.667 116.5,142.667 117.5,142C 128.954,132.282 139.954,122.115 150.5,111.5 Z"/></g>
</svg>
