<svg version="1.0" xmlns="http://www.w3.org/2000/svg" width="1365.333" height="1365.333" viewBox="0 0 1024 1024"><path d="M500.5 129c-.3.5-1.4 1-2.5 1-5.4 0-20.7 12.4-24.6 20-5.2 10.1-4.9-1.5-5.1 164.3-.1 84.6-.3 154.1-.6 154.3-.3.3-69.7.6-154.3.7-165 .2-156 0-163.7 5-1.4.9-3 1.7-3.4 1.7-.5 0-3.5 2.8-6.8 6.3-6.1 6.3-10.5 13.4-10.5 16.7 0 1.1-.4 2.2-1 2.5-.6.3-1 5.2-1 11s.4 10.7 1 11c.6.3 1 1.4 1 2.5 0 5.4 9.7 17.6 18.2 23.1 10.7 6.9-3.4 6.4 166.1 6.6 84.7.1 154.1.4 154.4.6.2.3.5 69.8.6 154.4.2 169.5-.3 155.3 6.6 166.1 5.5 8.5 17.7 18.2 23.1 18.2 1.1 0 2.2.4 2.5 1 .3.6 5.2 1 11 1s10.7-.4 11-1c.3-.6 1.4-1 2.5-1 5.4 0 17.6-9.7 23.1-18.2 6.9-10.7 6.4 3.4 6.6-166.2.1-84.6.4-154 .6-154.3.3-.2 69.7-.5 154.3-.6 165-.2 156 0 163.7-5 1.4-.9 3-1.7 3.4-1.7.5 0 3.5-2.8 6.8-6.3 6.1-6.3 10.5-13.4 10.5-16.7 0-1.1.5-2.2 1-2.5.6-.3 1-5.2 1-11s-.4-10.7-1-11c-.5-.3-1-1.4-1-2.5 0-5.4-12.4-20.7-20-24.6-10-5.2 1.4-4.9-164.4-5.1-84.6-.1-154-.4-154.3-.6-.2-.3-.5-69.7-.6-154.4-.2-164.9.1-155.9-5-163.6-.9-1.4-1.7-3-1.7-3.4 0-.5-2.8-3.5-6.3-6.8-6.3-6.1-13.4-10.5-16.7-10.5-1.1 0-2.2-.5-2.5-1-.3-.6-5.2-1-11-1s-10.7.4-11 1z" fill="currentColor"/></svg>