<svg version="1.0" xmlns="http://www.w3.org/2000/svg" width="1365.333" height="1365.333" viewBox="0 0 1024 1024"><path d="M612.5 157.2c-11.7 2.9-14 3.9-21.9 9-4 2.6-312 310.6-315.3 315.3-3.4 4.8-5.8 9.7-7 14-3.9 13.7-4.1 16.4-1.9 26.5 2.1 9.9 3.4 13 8 20 3.2 4.8 311.1 313.3 316.1 316.7 5.5 3.8 10.5 6.3 12.5 6.3 1 0 2.1.4 2.4.9 1.9 3 24.6 3.2 32.1.1 18.2-7.2 28.1-17.1 35.6-35.5.7-2 1.3-4.8 2.5-13.3.9-5.7-1.4-17.4-4.9-25.2-3.7-8.1-19-24-139.7-144.5L397.8 514.3l-2-2.1L529 379.3C652.3 256.4 667 241.2 670.7 233c3.5-8 5.7-18.7 5-24.7-1.6-12-1.7-12.5-6.6-22.5-5.7-11.7-16.4-20.8-31.6-26.9-5.5-2.1-19.5-3.1-25-1.7z" fill="currentColor"/></svg>