<svg version="1.0" xmlns="http://www.w3.org/2000/svg" width="1365.333" height="1365.333" viewBox="0 0 1024 1024"><g fill="currentColor"><path d="M50.8 129.5c-13.8 3-21.9 7.5-32.6 18.1-6.4 6.5-9 10-12.2 16.4C.7 175.1-.3 180.8.3 195.9c.7 18.3 5.1 28.4 17.7 41.2 10.2 10.4 20.3 15.8 34.8 18.8 7.5 1.6 909.9 1.6 917.4 0 14.3-2.9 23.9-8 33.9-17.9 8.2-8.1 14-17.2 16.4-26.1.9-3 2-6.2 2.5-7.1 1.3-2.2 1.3-22.2.1-24.6-.5-.9-1.6-4.2-2.5-7.2-4.5-15.1-18.3-31.1-32.9-38-15.9-7.6 28.4-7-477-6.9-360.3.1-455.4.4-459.9 1.4zM51.5 449.5c-13.9 3-23.2 8-33.1 17.9C5.5 480.3 0 493.8 0 512.5c0 18.7 5.5 32.2 18.4 45.1 10.1 10.1 21 15.8 35 18.3 8.4 1.5 907.8 1.5 916.2 0 14.3-2.6 24.9-8.2 35.4-18.8 8.1-8.2 14-18.3 16.3-27.9.6-2.8 1.5-5.2 1.9-5.2.5 0 .8-5.2.8-11.5s-.3-11.5-.8-11.5c-.4 0-1.3-2.4-1.9-5.3-2.3-9.8-8.1-19.5-16.8-28.2-10.6-10.7-20.4-15.8-34.9-18.4-9.5-1.7-910.1-1.3-918.1.4zM51 769.5c-14.3 3.4-22.9 8.2-33 18.4-7.5 7.5-12.1 14.9-15.7 24.6-2.6 7.2-2.6 32.8 0 40 3.7 10.1 8.2 17 16.2 25 10.4 10.4 19.6 15.4 34.3 18.4 7.5 1.6 909.9 1.6 917.4 0 14.3-2.9 23.9-8 33.9-17.9 8.2-8.1 14-17.2 16.4-26.1.9-3 2-6.2 2.5-7.1 1.3-2.3 1.3-22.3 0-24.6-.5-.9-1.6-4.1-2.5-7.1-2.4-8.9-8.2-18-16.4-26.1-10-9.9-19.6-15-33.9-17.9-8.4-1.7-911.8-1.3-919.2.4z"/></g></svg>