<svg version="1.0" xmlns="http://www.w3.org/2000/svg" width="1365.333" height="1365.333" viewBox="0 0 1024 1024"><g fill="currentColor"><path d="M495 1c0 .5-1.4 1-3.1 1-7.6 0-29.2 7-40.9 13.4-41.7 22.4-68 66.2-68 113.1 0 19.5 3.8 36.5 12.3 54.5 14.4 30.6 44 57.2 74.4 66.9 29.5 9.4 54.1 9.4 83.6 0 23.6-7.5 49.9-27.7 64.4-49.4 5.7-8.6 14.3-25 14.3-27.4 0-.6.4-1.9.9-2.9.5-.9 1.4-3.5 1.9-5.7.6-2.2 1.5-5.8 2-8 6.5-25.9 3.1-56.5-9.2-82.5-14-29.7-38.6-52.7-69.1-64.8-9.2-3.6-22.9-7.2-27.4-7.2-1.7 0-3.1-.5-3.1-1 0-.6-6.2-1-16.5-1S495 .4 495 1zM494.5 385.1c-24.2 4.5-37.3 9.5-54.9 21.2-35.2 23.5-56.6 63.6-56.6 106.2 0 34.3 12.9 65.4 37.5 90.1 24.6 24.8 57 38.4 91.6 38.4 5.9 0 13.1-.5 16.1-1.1 2.9-.6 7.8-1.5 10.8-2.1 37.1-7.3 72.4-35.5 89.1-71.3 2.1-4.5 4.7-11.1 5.8-14.6 1.8-6.1 2.5-9 5-21.7.6-3 1.1-10.8 1.1-17.5 0-36-14.4-69-41-94-16.5-15.6-39.1-27.4-60-31.5-3-.6-7.9-1.5-10.8-2.1-6.3-1.3-26.6-1.2-33.7 0zM494.5 769.1c-24 4.4-37.3 9.5-55 21.3-23.5 15.5-44.6 44.4-51.4 70.3-4 15.5-5.1 22.9-5.1 35.8 0 38.3 17.8 75.3 47.7 99.4 14.8 11.9 29.9 19.6 48.9 24.8 9.3 2.6 11.2 2.7 31.4 2.8 23.7 0 30.1-1 47.5-7.7 41.5-16 71.7-53.1 79.6-97.8 2.6-14.7 2.1-36.2-1.2-49.3-3.6-14.3-4.1-15.9-9.2-26.7-14.4-30.6-44-57.2-74.4-66.9-20.2-6.4-43.2-8.8-58.8-6z"/></g></svg>