<svg version="1.0" xmlns="http://www.w3.org/2000/svg" width="1365.333" height="1365.333" viewBox="0 0 1024 1024"><path d="M455.5 283.2c-11.5 2.8-15 4.2-23 9.8-7.5 5.2-15.7 15.4-18.4 23-.7 1.9-1.7 4.4-2.1 5.5-2.1 5.4-2.8 16.1-1.5 23 1.5 8.3 1.8 9.1 5.8 17.5 2.8 5.9 9.4 12.7 74.9 78.2 39.5 39.5 71.8 72 71.8 72.3 0 .3-32.3 32.8-71.8 72.3-65.6 65.5-72.1 72.3-74.9 78.2-4 8.4-4.3 9.2-5.8 17.5-1.3 6.9-.6 17.6 1.5 23 .4 1.1 1.4 3.6 2.1 5.5 4.6 12.7 19.1 26.1 33.4 30.8 8.1 2.6 16.4 3.4 23.2 2.2 11-2 15-3.6 23.3-9.1 3.1-2.1 45.7-44.1 98-96.6 96.4-96.7 94.5-94.6 99-106.8 3.9-10.5 3.9-23.5 0-34-4.5-12.2-2.6-10.1-99-106.8-50.9-51.1-94.3-94.1-96.5-95.7-5.9-4.1-10.5-6.5-15-7.7-12.7-3.5-17.4-3.9-25-2.1z" fill="currentColor"/></svg>