<svg width="256" height="256" viewBox="0 0 256 256" fill="none" xmlns="http://www.w3.org/2000/svg">
<path d="M239.2 97.29C238.231 94.3038 236.405 91.6687 233.95 89.7127C231.494 87.7568 228.517 86.5664 225.39 86.29L166 81.17L142.72 25.81C141.508 22.9051 139.463 20.4238 136.844 18.6785C134.225 16.9332 131.147 16.002 128 16.002C124.852 16.002 121.775 16.9332 119.156 18.6785C116.536 20.4238 114.492 22.9051 113.28 25.81L90.0699 81.17L30.6099 86.32C27.4703 86.5838 24.4784 87.7687 22.0095 89.7261C19.5406 91.6835 17.7046 94.3263 16.7316 97.323C15.7587 100.32 15.6922 103.537 16.5405 106.571C17.3888 109.606 19.114 112.322 21.4999 114.38L66.6099 153.8L53.0899 212.34C52.375 215.403 52.579 218.61 53.6764 221.558C54.7738 224.506 56.7159 227.065 59.2599 228.915C61.8039 230.766 64.8369 231.825 67.9797 231.961C71.1225 232.097 74.2356 231.304 76.9299 229.68L127.93 198.68L179.04 229.68C181.734 231.304 184.847 232.097 187.99 231.961C191.133 231.825 194.166 230.766 196.71 228.915C199.254 227.065 201.196 224.506 202.293 221.558C203.391 218.61 203.595 215.403 202.88 212.34L189.37 153.74L234.47 114.38C236.856 112.315 238.577 109.591 239.419 106.55C240.261 103.509 240.184 100.288 239.2 97.29ZM223.98 102.29L178.88 141.65C176.685 143.559 175.052 146.031 174.157 148.799C173.262 151.567 173.138 154.527 173.8 157.36L187.35 216L136.28 185C133.788 183.483 130.927 182.68 128.01 182.68C125.093 182.68 122.232 183.483 119.74 185L68.7399 216L82.1999 157.4C82.8614 154.567 82.738 151.607 81.8429 148.839C80.9478 146.071 79.3149 143.599 77.1199 141.69L31.9999 102.35C31.9963 102.32 31.9963 102.29 31.9999 102.26L91.4399 97.12C94.342 96.8642 97.1191 95.8209 99.4717 94.1027C101.824 92.3845 103.663 90.0565 104.79 87.37L128 32.08L151.2 87.37C152.327 90.0565 154.166 92.3845 156.518 94.1027C158.871 95.8209 161.648 96.8642 164.55 97.12L224 102.26V102.33L223.98 102.29Z" fill="currentColor"/>
</svg>
