<svg version="1.0" xmlns="http://www.w3.org/2000/svg" width="1365.333" height="1365.333" viewBox="0 0 1024 1024"><path d="M496.5 21.5c-12.7 2.4-17.7 4.1-29 9.8-19.9 10-32.9 24.6-46.4 52.2-3.5 7.2-16.8 34.1-29.6 60-36.8 74.4-57 115.5-60.1 122-3.9 8.4-9.8 16.9-13.7 19.9-6.2 4.7-11.2 6.3-28.2 8.7-3.8.6-9.7 1.4-13 1.9-3.3.5-9.3 1.4-13.2 2-4 .5-10.6 1.5-14.5 2-4 .6-10.2 1.5-13.8 2-3.6.6-9.6 1.4-13.5 1.9-3.8.6-10.1 1.5-14 2.1-8.6 1.3-17.7 2.7-27 3.9-3.8.6-10.1 1.5-14 2.1-3.8.6-10 1.5-13.7 2-3.8.6-9.9 1.4-13.8 2-3.8.5-10 1.4-13.7 2-3.8.5-9.9 1.4-13.8 2-3.8.6-10 1.5-13.8 2-17.8 2.6-20.5 3-24.7 4-2.5.6-5.7 1.4-7.3 1.7-1.5.3-3 .9-3.3 1.4-.3.5-1.2.9-2 .9-2.4 0-10.5 4.1-18.4 9.3C22.4 352.2 9.3 370.4 1.9 395c-1.9 6.3-1.9 41.7 0 48 2.9 9.6 8.2 20.8 13.7 29.1 4.1 6.1 26.6 29 70.8 71.9 8.8 8.5 18.5 18 21.6 21 3.1 3 14.6 14.3 25.6 25 10.9 10.7 27.9 27.3 37.7 36.9 9.8 9.5 19 19.2 20.6 21.5 6.6 9.8 7.1 15.8 3.1 38.6-.5 3-1.4 8.4-2.1 12-.6 3.6-1.5 8.7-1.9 11.5-.4 2.7-1.3 7.8-1.9 11.2-.6 3.5-1.6 9.1-2.2 12.5-.6 3.5-1.5 8.5-1.9 11.3-.4 2.7-1.3 7.8-1.9 11.2-.6 3.5-1.6 9.1-2.2 12.5-.6 3.5-1.5 8.5-1.9 11.3-.4 2.7-1.3 7.7-1.9 11-.6 3.3-1.5 8.7-2 12-1.2 7-2.9 17-4.1 24-.5 2.7-1.4 7.9-2 11.5-.6 3.6-1.5 9.2-2.1 12.5-.6 3.3-1.5 8.2-1.9 11-1.3 7.9-3 17.5-4.1 23.5-1.7 8.7-2.3 35.6-.9 42 5.7 25.8 19.8 46.4 41.6 60.7 5 3.2 11.7 7 15 8.2 3.2 1.3 6.8 2.7 7.9 3.1 4.9 2 22.1 5 29 5 14.5 0 31.5-4.9 49.3-14.2 6.4-3.3 17.1-8.9 23.7-12.3 6.6-3.4 15.6-8.1 20-10.5 4.4-2.4 13-6.9 19-10 6.1-3.1 14.4-7.5 18.5-9.7 4.1-2.2 13.8-7.3 21.5-11.3 7.7-4 17.4-9.1 21.5-11.3 4.1-2.2 12.2-6.5 18-9.5 5.8-3 14.8-7.7 20-10.5 5.2-2.7 15.6-8.1 23-12l13.5-7 10-.1h10l15.5 8.1c8.5 4.4 19.3 10.1 24 12.5 4.7 2.5 13.5 7.1 19.5 10.3 6.1 3.2 14.8 7.8 19.5 10.3 4.7 2.4 13.2 6.9 19 10 5.8 3 14.6 7.6 19.7 10.3 5.1 2.7 14.3 7.5 20.5 10.8 6.2 3.2 15.4 8 20.3 10.6 41 21.7 52.4 27.4 60.3 30.1 8.7 2.9 22.3 5.4 29.7 5.4 14.5 0 35.7-5.9 47-13.1 2.5-1.6 4.8-2.9 5.1-2.9.3 0 3.9-2.7 7.9-6 17.3-14.1 28.5-32.6 33.5-55 1.4-6.4.8-33.3-.9-42-.5-3-1.5-8.4-2.1-12-.6-3.6-1.5-9.2-2.1-12.5-.6-3.3-1.5-8.3-1.9-11-.8-5.1-2.2-13.1-4.1-24-.6-3.3-1.5-8.3-1.9-11-.8-5.1-2.2-13.1-4.1-24-.6-3.3-1.5-8.3-1.9-11-.4-2.8-1.3-7.8-1.9-11.3-.6-3.4-1.6-9-2.2-12.5-.6-3.4-1.5-8.5-1.9-11.2-.4-2.8-1.3-7.7-1.9-11-1.9-10.9-3.3-18.9-4.1-24-.4-2.8-1.3-7.9-1.9-11.5-.7-3.6-1.6-9-2.1-12-4-22.7-3.5-28.8 3.1-38.5 1.5-2.2 9.8-11 18.5-19.5 8.8-8.5 24.9-24.3 35.8-35 22.2-21.8 26.4-25.8 49.2-48 74-72 75.8-74 84.3-96.3 2-5.2 3.1-9.5 3.1-12 0-1.5.5-2.7 1-2.7.6 0 1-6 1-15.9 0-9.6-.4-16.2-1-16.6-.5-.3-1-1.7-1-3s-.4-3.4-.9-4.7c-.5-1.3-1.4-4.1-2.1-6.3-4-12.6-13.4-27.7-23.7-37.6-9.6-9.4-27.7-20.9-32.7-20.9-.8 0-1.7-.4-2-.9-.3-.5-1.8-1.1-3.3-1.4-1.6-.3-4.8-1.1-7.3-1.7-2.5-.6-7.4-1.5-11-2-3.6-.5-9.6-1.4-13.5-2-3.8-.6-10.1-1.5-14-2.1-3.8-.5-9.9-1.4-13.5-1.9-3.6-.6-9.6-1.4-13.5-1.9-3.8-.6-10.1-1.5-14-2.1-3.8-.6-10-1.5-13.7-2-7.3-1.1-17.6-2.6-27.3-4-3.3-.5-9.3-1.4-13.2-2-4-.5-10.4-1.5-14.3-2-3.8-.6-10-1.4-13.7-2-3.8-.5-9.9-1.4-13.8-2-3.8-.6-10-1.5-13.7-2-3.8-.6-9.9-1.5-13.8-2-3.8-.6-10-1.4-13.7-1.9-16.5-2.3-21.8-4-28-8.7-2.9-2.2-11.3-13.3-11.3-14.9 0-.3-9.3-19.4-20.6-42.3-49.9-100.8-65.5-132.5-71.5-144.7-11.3-23.2-22.4-37.1-37.6-47.2-20.1-13.4-45.5-18.9-67.8-14.8zM526.3 85c6.4 3 13.6 11.1 18.2 20.6 6.1 12.7 35.1 71.7 56.7 115.4 11 22.3 25 50.6 31.1 63 6.1 12.4 11.5 22.6 11.9 22.8.4.2.8.8.8 1.4 0 1.9 6.6 10.5 13.5 17.4 12.2 12.2 29.2 22.1 44 25.6 5.7 1.3 22.9 4.1 36 5.8 3.9.5 10.2 1.4 14 2 3.9.6 10.2 1.5 14 2.1 3.9.5 10 1.4 13.8 1.9 3.7.6 9.7 1.4 13.5 2 3.7.5 9.9 1.4 13.7 2 3.9.5 10.4 1.4 14.5 2 4.1.7 10 1.5 13 2 3 .4 9.1 1.3 13.5 1.9 7.9 1.1 16.2 2.3 28 4.1 6 .9 12.6 1.8 28 4 4.4.6 10.9 1.6 14.5 2.1 3.6.5 8.5 1.2 11 1.5 16.3 1.9 26.9 10.7 31.9 26.3 2.2 6.7 1 15.5-3.1 23.8-1.2 2.5-7.7 9.7-15.7 17.5-7.5 7.3-30.7 30-51.6 50.3-92.2 89.8-107.4 104.9-111.2 110.5-3.4 5.2-10.6 19.3-11.7 23-4 14.1-6.1 28-5.3 35.2.8 6.8 2.3 16.5 3.7 24.8.7 3.6 1.6 8.7 2 11.5.4 2.7 1.3 7.9 2 11.5.7 3.6 1.6 8.7 2 11.5.4 2.7 1.3 7.8 1.9 11.2.6 3.5 1.6 9.1 2.2 12.5.6 3.5 1.5 8.5 1.9 11.3.8 4.7 1.9 11.6 4 23 .4 2.7 1.3 7.8 1.9 11.2.6 3.5 1.6 9.1 2.2 12.5.6 3.5 1.5 8.5 1.9 11.3.8 4.7 1.9 11.6 4 23 1.8 10.3 3 17.2 3.9 23 1.6 9.6 3.2 18.6 4.2 24 1.8 9.8 2.2 21.5.8 25.8-5 15.8-22.3 26.5-37.9 23.5-5-1-15.9-6.2-44-21-4.7-2.5-13-6.9-18.5-9.8-5.5-2.9-13.8-7.3-18.5-9.8-4.7-2.4-13-6.8-18.5-9.7-5.5-2.8-13.6-7.1-18-9.5-4.4-2.4-12.9-6.9-19-10-6-3.1-14.6-7.6-19-10-4.4-2.4-12.9-6.9-19-10-6-3.1-15-7.9-20-10.5-18.9-10.2-24.5-12.6-35-15.3-16.5-4.2-29.5-4.2-46 0-10.6 2.7-13.5 4-32.5 14.1-5.2 2.7-13.5 7.1-18.5 9.7-4.9 2.6-12.8 6.7-17.5 9.2-15.4 8.2-28.3 15-39.5 20.8-6 3.1-14.8 7.7-19.5 10.2-4.7 2.5-12.9 6.8-18.2 9.7-5.4 2.8-14.1 7.3-19.3 10.1-5.2 2.7-13.8 7.2-19 10-5.2 2.7-13.7 7.2-18.7 9.9-5.1 2.7-11.7 6.1-14.6 7.6-17.7 9.2-36 4.6-46.9-12-4.6-7.1-5.3-17-2.3-34 2.4-13.4 2.9-16.3 4-22.5.6-3.6 1.5-8.8 2-11.5 1.9-10.9 3-17.3 4-23.5.6-3.6 1.5-8.8 2-11.5.4-2.8 1.3-7.8 1.9-11.3.6-3.4 1.6-9 2.2-12.5.6-3.4 1.5-8.5 1.9-11.2.8-4.7 1.9-11.6 4-23 .4-2.8 1.3-7.8 1.9-11.3.6-3.4 1.6-9 2.2-12.5.6-3.4 1.5-8.5 1.9-11.2.8-5.1 2.2-13.1 4.1-24 5.9-33.3 6.4-39.6 4.4-51.5-.9-5.2-1.9-11-2.2-12.8-.3-1.8-.9-3.5-1.4-3.8-.5-.3-.9-1.4-.9-2.4 0-2.2-7.1-16.6-11.3-23-3.8-5.6-28-29.7-113.2-112.5-62-60.3-63.1-61.4-65.3-65.8-3.1-6.3-4.2-10.5-4.2-15.6 0-12.2 7.8-25 18.6-30.7 3.6-1.9 10.6-3.2 33.9-6.4 4.4-.6 10.5-1.5 13.5-2s9.1-1.4 13.5-2c7.4-1 10.8-1.5 28-4 14.6-2.1 20.8-3 27.5-4 9.7-1.4 19.8-2.9 24-3.5 1.9-.3 6.7-1 10.5-1.5 6.3-.8 14.5-2 24.5-3.5 4.6-.7 15.3-2.3 24-3.5 3.8-.6 10.2-1.4 14-2 21.6-3.1 23.7-3.5 33-6.1 12.7-3.7 28.2-13.1 38.9-23.8 11.1-11 12.1-12.6 27.7-44.1 22.6-45.5 86.5-175.2 88.9-180.3 4-8.5 13.4-16.6 22-18.8 5.6-1.5 18.6-.3 23.8 2.1z" fill="currentColor"/></svg>