<svg width="32" height="32" fill="none" xmlns="http://www.w3.org/2000/svg"><g clip-path="url(#a)" fill="currentColor"><path d="M15.516.672a2.751 2.751 0 0 0-.907.306c-.621.313-1.028.769-1.45 1.631-.109.225-.525 1.066-.925 1.875a707.649 707.649 0 0 0-1.878 3.813c-.122.262-.306.528-.428.622-.194.147-.35.197-.881.272-.119.018-.303.043-.406.059l-.413.063c-.125.015-.331.046-.453.062a48.857 48.857 0 0 1-.853.122c-.119.019-.316.047-.438.066-.268.04-.553.084-.843.121-.12.02-.316.047-.438.066-.119.019-.312.047-.428.063-.119.018-.31.043-.431.062-.119.016-.313.044-.428.063-.12.015-.31.043-.432.062-.118.019-.312.047-.43.063-.557.08-.641.093-.773.124-.078.02-.178.044-.228.054-.047.009-.094.028-.103.043-.01.016-.037.028-.062.028-.075 0-.329.129-.575.291-.613.403-1.022.972-1.254 1.74-.059.198-.059 1.304 0 1.5.091.3.257.65.429.91.128.19.83.906 2.212 2.247l.675.656.8.782 1.178 1.153c.306.296.594.6.644.671.206.307.222.494.097 1.207a16.45 16.45 0 0 1-.066.375c-.019.112-.047.272-.06.36-.012.084-.04.243-.059.35l-.068.39c-.02.11-.047.265-.06.353-.012.084-.04.244-.06.35-.018.11-.05.284-.068.39-.019.11-.047.266-.06.354-.012.084-.04.24-.059.343-.018.103-.046.272-.062.375l-.128.75a25.12 25.12 0 0 0-.063.36l-.065.39c-.02.103-.047.257-.06.344-.04.247-.093.547-.128.735C4.975 27.959 4.956 28.8 5 29c.178.806.619 1.45 1.3 1.897a3.207 3.207 0 0 0 .716.353c.153.063.69.156.906.156.453 0 .984-.153 1.54-.444l.741-.384c.206-.106.488-.253.625-.328.138-.075.406-.216.594-.313.19-.096.45-.234.578-.303.128-.068.431-.228.672-.353.24-.125.544-.284.672-.353s.381-.203.562-.297c.181-.093.463-.24.625-.328.163-.084.488-.253.719-.375l.422-.219.312-.003h.313l.484.253c.266.138.603.316.75.391l.61.322.609.322c.147.075.413.215.594.312l.615.322.641.338.634.33c1.282.679 1.638.857 1.885.942.272.09.697.168.928.168.453 0 1.116-.184 1.469-.41.078-.05.15-.09.159-.09.01 0 .122-.084.247-.187.54-.44.89-1.019 1.047-1.719.044-.2.025-1.04-.028-1.313l-.066-.375c-.019-.112-.047-.287-.066-.39-.018-.103-.046-.26-.059-.344-.025-.16-.069-.41-.128-.75a14.41 14.41 0 0 1-.06-.344c-.024-.159-.068-.409-.128-.75-.018-.103-.046-.259-.059-.343-.012-.088-.04-.244-.06-.353l-.068-.391c-.019-.106-.047-.266-.06-.35-.012-.088-.04-.24-.059-.344-.06-.34-.103-.59-.128-.75-.012-.087-.04-.247-.06-.36-.021-.112-.05-.28-.065-.374-.125-.71-.11-.9.097-1.203a7.93 7.93 0 0 1 .578-.61c.275-.265.778-.76 1.119-1.093.694-.682.825-.807 1.537-1.5 2.313-2.25 2.369-2.313 2.635-3.01.062-.162.096-.297.096-.375 0-.047.016-.084.032-.084.018 0 .031-.188.031-.497 0-.3-.012-.506-.031-.519-.016-.01-.032-.053-.032-.094a.489.489 0 0 0-.028-.146 4.837 4.837 0 0 1-.065-.197 3.08 3.08 0 0 0-.74-1.175c-.3-.294-.866-.653-1.023-.653-.025 0-.053-.013-.062-.029-.01-.015-.056-.034-.103-.043-.05-.01-.15-.035-.229-.053a4.352 4.352 0 0 0-.343-.063l-.422-.063-.438-.065-.422-.06a13.7 13.7 0 0 0-.421-.059l-.438-.066a153.993 153.993 0 0 0-1.281-.188l-.413-.062c-.125-.015-.325-.046-.447-.062-.118-.019-.312-.044-.428-.063-.118-.015-.309-.043-.43-.062a23.56 23.56 0 0 0-.429-.063c-.119-.018-.31-.046-.431-.062-.119-.019-.313-.044-.428-.06-.516-.071-.682-.124-.875-.271-.091-.069-.354-.416-.354-.466 0-.01-.29-.606-.643-1.322-1.56-3.15-2.047-4.14-2.235-4.522-.353-.725-.7-1.159-1.175-1.475-.628-.418-1.422-.59-2.118-.462Z"/><path d="M15.516.672a2.751 2.751 0 0 0-.907.306c-.621.313-1.028.769-1.45 1.631-.109.225-.525 1.066-.925 1.875a707.649 707.649 0 0 0-1.878 3.813c-.122.262-.306.528-.428.622-.194.147-.35.197-.881.272-.119.018-.303.043-.406.059l-.413.063c-.125.015-.331.046-.453.062a48.857 48.857 0 0 1-.853.122c-.119.019-.316.047-.438.066-.268.04-.553.084-.843.121-.12.02-.316.047-.438.066-.119.019-.312.047-.428.063-.119.018-.31.043-.431.062-.119.016-.313.044-.428.063-.12.015-.31.043-.432.062-.118.019-.312.047-.43.063-.557.08-.641.093-.773.124-.078.02-.178.044-.228.054-.047.009-.094.028-.103.043-.01.016-.037.028-.062.028-.075 0-.329.129-.575.291-.613.403-1.022.972-1.254 1.74-.059.198-.059 1.304 0 1.5.091.3.257.65.429.91.128.19.83.906 2.212 2.247l.675.656.8.782 1.178 1.153c.306.296.594.6.644.671.206.307.222.494.097 1.207a16.45 16.45 0 0 1-.066.375c-.019.112-.047.272-.06.36-.012.084-.04.243-.059.35l-.068.39c-.02.11-.047.265-.06.353-.012.084-.04.244-.06.35-.018.11-.05.284-.068.39-.019.11-.047.266-.06.354-.012.084-.04.24-.059.343-.018.103-.046.272-.062.375l-.128.75a25.12 25.12 0 0 0-.063.36l-.065.39c-.02.103-.047.257-.06.344-.04.247-.093.547-.128.735C4.975 27.959 4.956 28.8 5 29c.178.806.619 1.45 1.3 1.897a3.207 3.207 0 0 0 .716.353c.153.063.69.156.906.156.453 0 .984-.153 1.54-.444l.741-.384c.206-.106.488-.253.625-.328.138-.075.406-.216.594-.313.19-.096.45-.234.578-.303.128-.068.431-.228.672-.353.24-.125.544-.284.672-.353s.381-.203.562-.297c.181-.093.463-.24.625-.328.163-.084.488-.253.719-.375l.422-.219.312-.003h.313l.484.253c.266.138.603.316.75.391l.61.322.609.322c.147.075.413.215.594.312l.615.322.641.338.634.33c1.282.679 1.638.857 1.885.942.272.09.697.168.928.168.453 0 1.116-.184 1.469-.41.078-.05.15-.09.159-.09.01 0 .122-.084.247-.187.54-.44.89-1.019 1.047-1.719.044-.2.025-1.04-.028-1.313l-.066-.375c-.019-.112-.047-.287-.066-.39-.018-.103-.046-.26-.059-.344-.025-.16-.069-.41-.128-.75a14.41 14.41 0 0 1-.06-.344c-.024-.159-.068-.409-.128-.75-.018-.103-.046-.259-.059-.343-.012-.088-.04-.244-.06-.353l-.068-.391c-.019-.106-.047-.266-.06-.35-.012-.088-.04-.24-.059-.344-.06-.34-.103-.59-.128-.75-.012-.087-.04-.247-.06-.36-.021-.112-.05-.28-.065-.374-.125-.71-.11-.9.097-1.203a7.93 7.93 0 0 1 .578-.61c.275-.265.778-.76 1.119-1.093.694-.682.825-.807 1.537-1.5 2.313-2.25 2.369-2.313 2.635-3.01.062-.162.096-.297.096-.375 0-.047.016-.084.032-.084.018 0 .031-.188.031-.497 0-.3-.012-.506-.031-.519-.016-.01-.032-.053-.032-.094a.489.489 0 0 0-.028-.146 4.837 4.837 0 0 1-.065-.197 3.08 3.08 0 0 0-.74-1.175c-.3-.294-.866-.653-1.023-.653-.025 0-.053-.013-.062-.029-.01-.015-.056-.034-.103-.043-.05-.01-.15-.035-.229-.053a4.352 4.352 0 0 0-.343-.063l-.422-.063-.438-.065-.422-.06a13.7 13.7 0 0 0-.421-.059l-.438-.066a153.993 153.993 0 0 0-1.281-.188l-.413-.062c-.125-.015-.325-.046-.447-.062-.118-.019-.312-.044-.428-.063-.118-.015-.309-.043-.43-.062a23.56 23.56 0 0 0-.429-.063c-.119-.018-.31-.046-.431-.062-.119-.019-.313-.044-.428-.06-.516-.071-.682-.124-.875-.271-.091-.069-.354-.416-.354-.466 0-.01-.29-.606-.643-1.322-1.56-3.15-2.047-4.14-2.235-4.522-.353-.725-.7-1.159-1.175-1.475-.628-.418-1.422-.59-2.118-.462Z"/></g><defs><clipPath id="a"><path fill="#fff" d="M0 0h32v32H0z"/></clipPath></defs></svg>