<svg version="1.0" xmlns="http://www.w3.org/2000/svg" width="1365.333" height="1365.333" viewBox="0 0 1024 1024"><g fill="currentColor"><path d="M502 1c0 .5-.6 1-1.3 1-4.6 0-15.6 9.6-18.3 15.9-.9 2-2 4.4-2.5 5.3-1.2 2.3-1.2 112.3 0 114.6.5.9 1.6 3.3 2.5 5.3 1.9 4.4 9.8 12.5 14 14.3 7.6 3.2 9.1 3.6 15.1 3.6 3.5 0 7.7-.5 9.2-1.1 7.7-3.2 9.3-4.2 13.7-8.5 4.3-4.4 5.3-6 8.5-13.7 1.4-3.5 1.6-111.8.2-114.5-.5-.9-1.6-3.3-2.5-5.3C537.9 11.6 526.9 2 522.3 2c-.7 0-1.3-.5-1.3-1 0-.6-3.8-1-9.5-1s-9.5.4-9.5 1zM163.5 141.3c-6.2 2.1-8.5 3.2-8.5 3.9 0 .5-.6.8-1.3.8-1.6 0-8.7 7.2-8.7 8.8 0 .7-.3 1.2-.8 1.2-.7 0-2 2.8-4 9.1-1.5 4.3-1.6 14.6-.2 15.4.6.3 1 1.4 1 2.5 0 1 1 3.6 2.1 5.8 2.7 4.9 77.2 79.3 81.4 81.1 1.7.7 3.8 1.7 4.7 2.2 1 .5 5.8.9 10.8.9 5 0 9.8-.4 10.8-.9.9-.5 2.9-1.4 4.5-2.2 4.6-2.1 11.6-9.8 14.3-15.8 2.1-4.5 2.6-7.1 2.6-13.7 0-4.5-.4-9-1-10-.5-1-1.6-3.3-2.3-4.9-1.8-4.2-76.2-78.7-81.1-81.4-2.2-1.1-4.8-2.1-5.8-2.1-1.1 0-2.2-.5-2.5-1-.8-1.3-12.1-1.1-16 .3zM842 141.2c-9.3 3.9-12.3 6.6-48.6 43.1-20.9 21-38.5 39.4-39.2 40.9-.7 1.6-1.7 3.9-2.3 5.2-.7 1.4-1.2 6-1.1 10.3 0 6.3.5 8.9 2.6 13.5 2.8 6.1 9.5 13.5 14.2 15.7 1.6.7 3.7 1.8 4.7 2.3 2.4 1.2 19 1.2 21.4 0 1-.6 3.2-1.6 4.8-2.3 4.2-1.8 78.7-76.2 81.4-81.1 1.1-2.2 2.1-4.8 2.1-5.8 0-1.1.5-2.2 1-2.5.6-.3 1-3.7 1-7.5s-.4-7.2-1-7.5c-.5-.3-1-1.4-1-2.4 0-2.1-2.2-7.1-3.2-7.1-.5 0-.8-.6-.8-1.3 0-1.6-7.2-8.7-8.8-8.7-.7 0-1.2-.3-1.2-.8 0-1-5-3.2-7.1-3.2-1 0-2.1-.5-2.4-1-.8-1.3-13.3-1.2-16.5.2zM482 225.2c-10 1.1-20.6 2.8-25.5 3.8-2.2.5-6.5 1.4-9.5 2.1-3 .6-6.6 1.5-8 1.9-1.4.4-4.5 1.3-7 2-11.8 3.3-23.1 7.4-28.2 10.1-1 .5-2.2.9-2.8.9-1.4 0-26.2 12.3-32.5 16-2.7 1.7-5.7 3.3-6.5 3.7-1.4.6-15.2 9.6-17.5 11.5-.5.4-5.9 4.6-12 9.3-21.3 16.6-45.6 42.9-61.5 66.5-3.3 4.9-6 9.1-6 9.4 0 .2-1.7 3.3-3.8 6.7-10.6 17.7-21.2 42.8-27.2 63.9-.7 2.5-1.6 5.6-2 7-.5 1.4-1.1 3.8-1.4 5.5-.3 1.6-1.2 5.9-1.9 9.5-1.4 6.3-2.6 14.2-4.7 30.3-1.3 10.1-1.3 44.3 0 54.4 2.1 16.1 3.3 24 4.7 30.3.7 3.6 1.6 7.8 1.9 9.5.3 1.6.9 4.1 1.4 5.5.4 1.4 1.3 4.5 2 7 6 21.1 16.6 46.2 27.2 63.9 2.1 3.4 3.8 6.5 3.8 6.7 0 .6 10.1 15.7 11 16.4.3.3 1.7 2.1 3 4 12.7 18.5 43.4 49.3 62 62 1.9 1.3 3.7 2.7 4 3 .7.9 15.2 10.5 17 11.3.8.4 3.8 2 6.5 3.7 2.8 1.6 10.2 5.5 16.5 8.5 11 5.4 12.9 6.2 18.5 8.5 1.4.5 3.6 1.4 5 2 1.4.5 3.5 1.4 4.8 1.9 3 1.3 11.4 4.1 15.7 5.3 1.9.5 5.1 1.4 7 1.9 11.1 3.2 29.3 6.6 48 8.9 11 1.3 44 1.3 55 0 18.8-2.3 36.5-5.6 48.3-8.9 2-.6 5.2-1.5 7-2 4-1.1 12.6-3.9 15.2-5.1 1.1-.4 4-1.6 6.5-2.5 9.8-3.6 29.5-13.1 38.9-18.7 3.4-2.1 6.5-3.8 6.7-3.8 1.2 0 19.2-12.7 28.1-19.8 20.5-16.4 42.3-38.8 53.6-55.2 1.7-2.5 3.4-4.7 3.7-5 .9-.7 10.5-15.1 11.3-17 .4-.8 2-3.8 3.6-6.5 5.2-8.6 15.3-29.5 18.6-38.5.9-2.5 2.1-5.4 2.5-6.5 1.1-2.5 4-11 5.1-15 .4-1.7 1.3-4.8 1.9-7 2.3-8.1 5.2-22 6.9-33 2.5-16.4 3.1-25.1 3.1-43s-.6-26.6-3.1-43c-1.7-10.9-4.7-25.1-6.8-32.8-.6-2-1.5-5.2-2-7-1.1-4-3.9-12.6-5.1-15.2-.4-1.1-1.6-4-2.5-6.5-3.6-9.8-13.1-29.5-18.7-38.9-2.1-3.4-3.8-6.5-3.8-6.7 0-.3-2.7-4.5-6-9.4-15.5-23.1-39.4-49.1-61-66.3-9.8-7.8-28.2-20.7-29.5-20.7-.4 0-2.5-1.3-4.8-2.8-3.8-2.5-23.6-12.5-32.7-16.5-15.8-6.9-37.4-13.6-56.5-17.5-4.7-1-9.2-1.7-28.8-4.2-9.2-1.2-46-1.1-56.7.2zm49.5 64.9c12.3 1.3 25.5 3.6 35 6 5.4 1.4 22.5 6.8 25.3 7.9 1.2.6 3.2 1.4 4.5 1.9 5.5 2.2 24.6 11.8 28.4 14.3 2.3 1.5 4.5 2.8 5 2.8.4 0 3.2 1.8 6.1 4 2.9 2.2 5.5 4 5.7 4 .6 0 1.2.5 13.1 10.4 10.1 8.3 25.7 24.3 32 32.7 10.5 14.1 12.4 16.7 14.4 20.4 1.2 2.2 3 5.1 3.9 6.5 1 1.4 3.8 6.8 6.3 12 4.1 8.4 5.9 12.4 8.8 19.5 1.1 2.6 4.4 12.8 6 18.5.7 2.5 1.6 5.6 2 7 .8 2.4 2.1 8.8 3.9 19.2 1.6 9 3.1 25.9 3.1 35.3 0 9.4-1.5 26.3-3.1 35.2-1.8 10.5-3.1 16.9-3.9 19.3-.4 1.4-1.3 4.5-2 7-1.6 5.7-4.9 15.9-6 18.5-2.9 7.1-4.7 11.1-8.8 19.5-2.5 5.2-5.3 10.6-6.3 12-.9 1.4-2.7 4.3-3.9 6.5-5.6 10.1-21.7 30.1-33.1 41.2-11.6 11.3-29.1 25.1-38.4 30.3-2.2 1.2-5.1 3-6.5 3.9-2.6 1.8-18.4 9.6-25.5 12.6-2.2.9-4.9 2.1-6 2.6-5.7 2.4-25.4 8.1-34 9.8-29.9 6-55.8 6.6-81.2 2-10.5-1.8-16.9-3.1-19.3-3.9-1.4-.4-4.5-1.3-7-2-17.5-4.9-41-15-51.7-22.2-2.3-1.5-4.4-2.8-4.7-2.8-.8 0-8.9-5.7-19.1-13.4-16.9-12.7-43.5-42.1-52.4-57.9-1.3-2.3-3.1-5.3-4-6.7-1-1.4-3.8-6.8-6.3-12-4.1-8.4-5.9-12.4-8.8-19.5-1.1-2.6-4.4-12.8-6-18.5-.7-2.5-1.6-5.6-2-7-.4-1.4-1.3-5.2-2-8.5-6.7-34.7-6.7-57.9.1-92 1.6-8.3 7.6-28.8 9.8-34 .5-1.1 1.7-3.8 2.6-6 11.9-28 26.5-49.6 48.5-71.5 18.9-19 36.3-31.6 58-42.2 15.9-7.7 23.8-10.8 38-14.8 2.5-.7 5.6-1.6 7-2 2.4-.7 6.3-1.6 19-3.9 16.1-3 39.1-3.8 55.5-2zM22 481c-.8.4-3.2 1.6-5.3 2.5-4.7 2-12 9.2-14.4 14.2-2.5 5.3-2.6 24.2-.1 29.4 2.3 4.7 10.2 12.6 14.7 14.5 2 .9 4.4 2 5.3 2.5 2.7 1.4 111 1.2 114.5-.2 7.7-3.2 9.3-4.2 13.7-8.5 4.3-4.4 5.3-6 8.5-13.7 1.4-3.6 1.4-14.8 0-18.4-3.2-7.7-4.2-9.3-8.5-13.7-4.4-4.3-6-5.3-13.7-8.5-3.4-1.3-112.3-1.5-114.7-.1zM886 481c-.8.4-3.1 1.5-5.1 2.4-4.4 1.9-12.5 9.8-14.3 14-3.2 7.6-3.6 9.1-3.6 15.1s.4 7.5 3.6 15.1c1.8 4.2 9.9 12.1 14.3 14 2 .9 4.4 2 5.3 2.5 2.3 1.2 112.3 1.2 114.6 0 .9-.5 3.3-1.6 5.3-2.5 6.3-2.7 15.9-13.7 15.9-18.3 0-.7.5-1.3 1-1.3.6 0 1-3.8 1-9.5s-.4-9.5-1-9.5c-.5 0-1-.6-1-1.3 0-4.6-9.6-15.6-15.9-18.3-2-.9-4.4-2-5.3-2.5-2.2-1.1-112.8-1.1-114.8.1zM229 752.9c-.8.5-2.8 1.5-4.5 2.2-4.7 2.1-78.9 76.4-81.3 81.3-3.6 7.6-4.2 9.7-4.2 15.1 0 5.5.6 7.5 4.4 15.4 6.4 13.4 23.2 21.2 36.5 17 9.4-3 12.2-5.4 49.3-42.7 43.2-43.3 42.8-42.8 42.8-57.2 0-7.2-.4-9.5-2.5-13.8-3.3-6.8-8.8-12.4-15.5-15.6-4.6-2.2-6.6-2.6-14.4-2.5-5 0-9.8.4-10.6.8zM772 752.9c-.8.5-2.8 1.5-4.5 2.2-3.9 1.8-11.6 9.5-13.4 13.4-.7 1.6-1.8 3.8-2.3 4.8-1.2 2.4-1.2 19 0 21.4.6 1 1.6 3.1 2.3 4.8 1.9 4.2 76.1 78.7 81.1 81.4 2.2 1.1 4.8 2.1 5.8 2.1 1.1 0 2.2.4 2.5 1 .8 1.4 11 1.3 15.4-.1 5.1-1.6 8.4-3.2 9.9-4.7.8-.6 2.2-1.7 3.2-2.2 2.7-1.5 7.9-9.4 10.1-15.4 2.1-5.7 2.5-14.1.8-18.3-3.8-9.4-6.4-12.3-43.2-48.9-21-20.9-39.5-38.6-41.2-39.3-1.6-.7-3.8-1.7-4.7-2.2-2.2-1.1-19.8-1.1-21.8 0zM502 865.2c-1.4.6-3.9 1.7-5.6 2.4-4.2 1.8-12.1 9.9-14 14.3-.9 2-2 4.4-2.5 5.3-1.2 2.3-1.2 112.3 0 114.6.5.9 1.6 3.3 2.5 5.3 1.9 4.5 9.8 12.4 14.5 14.7 5.1 2.4 24.1 2.4 29.2 0 4.7-2.3 12.6-10.2 14.5-14.7.9-2 2-4.4 2.5-5.3 1.4-2.7 1.2-111-.2-114.5-3.2-7.7-4.2-9.3-8.5-13.7-4.4-4.3-6-5.3-13.7-8.5-3.5-1.4-15.3-1.3-18.7.1z"/></g></svg>